<?xml version="1.0" encoding="utf-8"?>
<!-- Generator: Adobe Illustrator 16.0.0, SVG Export Plug-In . SVG Version: 6.00 Build 0)  -->
<!DOCTYPE svg PUBLIC "-//W3C//DTD SVG 1.1//EN" "http://www.w3.org/Graphics/SVG/1.1/DTD/svg11.dtd">
<svg version="1.1" id="Layer_1" xmlns="http://www.w3.org/2000/svg" xmlns:xlink="http://www.w3.org/1999/xlink" x="0px" y="0px"
	 width="1605.22px" height="1623.219px" viewBox="0 0 1605.22 1623.219" enable-background="new 0 0 1605.22 1623.219"
	 xml:space="preserve">
<path fill-rule="evenodd" clip-rule="evenodd" fill="#99FE01" d="M337.136,279.445c-1.767-2.259-3.409-4.627-5.318-6.758
	c-16.219-18.101-32.545-36.104-49.473-53.551c-0.668-0.688-1.339-1.375-1.99-2.079c-2.326-2.514-2.324-3.437-0.137-5.557
	c2.053-1.99,4.057-4.032,6.083-6.054c1.609-1.011,3.328-1.881,4.807-3.054c7.013-5.561,13.885-11.3,20.943-16.802
	c33.358-25.998,68.629-49.116,105.754-69.349c23.307-12.702,47.102-24.464,71.566-34.806c35.366-14.95,71.583-27.452,108.733-37.161
	c18.222-4.763,36.562-9.056,55.127-12.349c12.258-2.174,24.498-4.377,36.852-5.996c10.129-1.327,20.201-3.063,30.421-3.61
	c0.957-0.051,1.938-0.071,2.858-0.302c5.961-1.5,12.073-1.158,18.124-1.583s12.082-1.295,18.136-1.483
	c28.782-0.891,57.568-0.828,86.354-0.029c2.236,0.063,4.529-0.068,6.694,0.379c5.056,1.044,10.167,1.07,15.274,1.311
	c4.467,0.21,8.948,0.182,13.341,1.308c1.528,0.392,3.174,0.321,4.764,0.485c7.94,0.822,15.913,1.421,23.813,2.539
	c10.424,1.475,20.771,3.496,31.188,5.029c12.016,1.769,23.902,4.223,35.715,6.931c19.917,4.566,39.704,9.647,59.295,15.542
	c22.364,6.729,44.358,14.473,65.969,23.234c26.367,10.689,52.263,22.445,77.313,36.038c21.654,11.75,42.933,24.093,63.467,37.704
	c17.592,11.66,34.898,23.716,51.465,36.821c11.034,8.729,22.118,17.387,32.592,26.793c9.751,8.757,19.728,17.277,29.215,26.311
	c19.929,18.975,38.988,38.799,56.644,59.932c7.788,9.322,15.668,18.58,23.125,28.164c17.682,22.723,34.182,46.28,49.304,70.801
	c9.234,14.974,18.082,30.166,26.298,45.714c10.906,20.64,21.072,41.634,30.131,63.171c7.563,17.98,14.566,36.163,20.953,54.585
	c5.652,16.307,10.598,32.845,15.045,49.51c3.785,14.185,7.129,28.502,10.174,42.866c2.449,11.546,4.609,23.162,6.585,34.815
	c1.868,11.023,3.412,22.089,4.79,33.162c1.143,9.174,2.71,18.349,2.604,27.658c-0.019,1.62,0.395,3.163,1.399,4.493
	c2.372,28.725,2.287,57.507,1.835,86.287c-0.277,17.584-1.628,35.115-3.12,52.643c-1.194,14.024-2.858,27.986-4.812,41.906
	c-2.53,18.035-5.727,35.976-9.627,53.77c-5.2,23.724-11.229,47.238-18.59,70.396c-0.867,2.73-1.818,5.438-2.86,8.104
	c-0.157,0.404-1.174,0.884-1.535,0.729c-2.037-0.876-4.05-1.845-5.977-2.945c-17.495-9.987-35.271-19.44-53.591-27.83
	c-6.384-2.924-12.918-5.519-19.386-8.266c-1.727-0.84-3.459-1.659-5.17-2.521c-1.161-0.584-1.793-2.011-1.449-3.209
	c1.498-5.218,3.061-10.418,4.507-15.65c7.667-27.747,13.549-55.88,17.771-84.344c2.015-13.588,3.592-27.238,4.715-40.948
	c1.646-20.083,2.891-40.172,2.922-60.328c0.019-11.834-0.475-23.645-1.018-35.467c-0.982-21.415-3.045-42.702-5.91-63.941
	c-2.951-21.872-7.164-43.492-12.083-64.987c-0.35-1.528-1.132-2.958-1.713-4.432c0.144-0.5,0.06-0.959-0.253-1.375
	c-0.112-1.266-0.052-2.576-0.361-3.792c-11.452-45.051-26.948-88.652-47.03-130.592c-46.045-96.161-110.382-177.953-193.092-245.227
	c-66.694-54.246-140.916-94.841-222.476-122.012c-3.016-1.005-6.136-1.697-9.207-2.534c-2.089-0.779-4.148-1.648-6.271-2.322
	c-15.234-4.845-30.71-8.814-46.254-12.505c-17.108-4.062-34.372-7.414-51.754-10.02c-12.639-1.895-25.314-3.571-38.062-4.751
	c-15.292-1.417-30.582-2.816-45.932-3.125c-24.945-0.503-49.877-0.59-74.807,1.35c-15.632,1.217-31.234,2.65-46.747,4.785
	c-19.627,2.701-39.11,6.291-58.46,10.642c-48.516,10.908-95.306,26.816-140.435,47.678
	c-56.645,26.186-108.817,59.413-156.736,99.355c-1.474,1.229-2.915,2.499-4.402,3.712c-2.145,1.75-2.978,1.752-4.991,0.076
	C339.552,281.511,338.348,280.473,337.136,279.445z"/>
<path fill-rule="evenodd" clip-rule="evenodd" fill="#99FE01" d="M814.274,1534.224c-1.754,0.914-3.194,1.998-3.283,4.269
	c-0.372,9.588-0.91,19.178,0.178,28.752c1.011,8.893,2.112,17.775,3.159,26.664c0.148,1.264,0.364,2.545,0.29,3.804
	c-0.304,5.118-0.227,10.156,0.87,15.24c0.511,2.37-0.298,5.04-0.593,7.563c-0.125,1.07-1.55,2.219-2.732,2.334
	c-1.589,0.156-3.184,0.383-4.773,0.368c-8.953-0.081-17.907-0.188-26.858-0.367c-3.515-0.07-7.026-0.5-10.54-0.505
	c-14.734-0.024-29.398-1.381-44.031-2.755c-17.491-1.643-34.914-3.966-52.279-6.771c-32.219-5.205-63.991-12.298-95.314-21.424
	c-99.729-29.057-190.33-75.847-272.009-139.991c-32.269-25.341-62.33-53.079-90.34-83.033
	c-47.879-51.202-88.359-107.732-121.477-169.52c-32.488-60.613-56.638-124.414-72.678-191.267
	c-5.145-21.442-9.396-43.076-12.593-64.914c-2.363-16.135-4.396-32.293-5.871-48.539C1.288,870.867-0.024,847.58,0,824.214
	c0.024-23.352-0.053-46.703,2.033-69.994c0.442-1.179,1.208-2.34,1.272-3.539c0.428-7.98,1.076-15.926,2.248-23.843
	c1.029-6.945,1.637-13.952,2.522-20.919c0.563-4.432,1.159-8.868,1.976-13.258c2.276-12.237,4.734-24.439,7.01-36.676
	c2.863-15.397,6.666-30.577,10.815-45.657c6.188-22.488,13.199-44.717,21.264-66.627c8.511-23.119,18.1-45.765,28.645-68.005
	c7.122-15.02,14.691-29.82,22.845-44.323c9.09-16.169,18.616-32.065,28.642-47.668c9.164-14.263,19.012-28.057,29.075-41.682
	c7.593-10.28,15.656-20.217,23.679-30.17c4.045-5.018,5.339-5.064,9.828-0.346c12.561,13.205,24.983,26.542,37.447,39.838
	c0.653,0.697,1.14,1.549,1.785,2.255c5.386,5.892,10.41,12.129,16.496,17.356c0.822,1.352,1.584,2.746,2.479,4.048
	c2.005,2.917,2.067,3.43,0.235,5.855c-1.155,1.53-2.349,3.03-3.532,4.539c-46.104,58.781-81.944,123.28-107.688,193.395
	c-0.984,2.681-1.636,5.484-2.443,8.23c-1.188,2.954-2.537,5.853-3.539,8.869c-13.81,41.588-23.978,84.021-29.806,127.489
	c-2.844,21.213-5.142,42.458-5.792,63.863c-0.068,2.233-0.234,4.464-0.393,6.694c-0.905,12.76-0.864,25.526-0.264,38.296
	c0.375,7.974,0.759,15.947,1.139,23.921c-0.793,14.753,1.435,29.322,2.769,43.938c0.637,6.979,2.118,13.879,2.839,20.854
	c1.053,10.176,2.886,20.235,4.79,30.25c5.188,27.295,12.024,54.203,20.36,80.718c11.808,37.556,26.544,73.912,44.459,108.984
	c10.182,19.934,21.25,39.354,33.297,58.208c13.08,20.471,26.998,40.359,42.161,59.356c11.164,13.986,22.639,27.73,34.886,40.768
	c16.19,17.233,32.854,34.003,50.674,49.61c11.783,10.32,23.763,20.375,36.127,29.981c20.2,15.692,41.142,30.317,63.001,43.612
	c1.336,0.813,2.881,1.281,4.329,1.91c2.021,2.631,5.071,3.822,7.792,5.419c89.928,52.744,186.897,83.773,290.589,93.852
	c17.187,1.671,34.439,2.797,51.737,2.723c6.079-0.026,12.159,0.017,18.237,0.074c1.259,0.013,2.54,0.124,3.759,0.409
	c0.512,0.12,1.139,0.743,1.278,1.257c0.33,1.208,0.382,2.491,0.578,3.739C811.876,1533.308,813.046,1533.804,814.274,1534.224z"/>
<path fill-rule="evenodd" clip-rule="evenodd" fill="#020201" d="M814.274,1534.224c-1.228-0.42-2.397-0.916-2.632-2.407
	c-0.196-1.248-0.248-2.531-0.578-3.739c-0.14-0.514-0.767-1.137-1.278-1.257c-1.219-0.285-2.5-0.396-3.759-0.409
	c-6.078-0.058-12.158-0.101-18.237-0.074c-17.298,0.074-34.55-1.052-51.737-2.723c-103.692-10.078-200.661-41.107-290.589-93.852
	c-2.721-1.597-5.771-2.788-7.792-5.42c2.94-3.381,6.228-6.212,10.159-8.549c10.214-6.074,17.528-14.821,21.239-26.17
	c1.486-4.546,3.465-8.799,5.49-13.074c2.838-4.131,5.246-8.44,5.61-13.592c1.324-0.658,2.367-2.218,4.221-0.956
	c1.577,1.072,3.324,1.894,4.982,2.849c41.098,23.667,84.276,42.545,129.657,56.364c26.286,8.005,52.941,14.391,80.083,18.765
	c9.458,1.524,18.922,2.918,28.437,4.043c14.912,1.763,29.824,3.399,44.849,3.538c2.978,1.557,6.229,1.128,9.382,1.114
	c18.827-0.082,37.645,0.148,56.471-1.119c11.466-0.772,22.928-1.636,34.338-2.827c13.312-1.391,26.596-3.323,39.77-5.697
	c27.641-4.98,54.884-11.624,81.653-20.23c39.315-12.641,77.006-28.946,113.144-48.922c16.48-9.108,32.217-19.412,48.213-29.302
	c0.239-0.148,0.332-0.535,0.492-0.812c2.116-1.529,4.232-3.06,6.349-4.59c2.368-1.602,4.787-3.134,7.099-4.813
	c93.676-68.071,163.827-155.083,210.077-261.268c16.886-38.767,29.47-78.918,37.979-120.354c4.246-20.669,7.565-41.46,9.669-62.462
	c1.785-17.818,3.142-35.648,3.386-53.561c0.356-26.233-0.578-52.391-3.494-78.488c-1.882-16.838-4.229-33.586-7.469-50.212
	c-0.978-5.015-1.754-10.074-2.871-15.057c-0.602-2.684,0.928-4.163,2.421-5.808c1.485-0.513,3.027-0.905,4.449-1.557
	c10.989-5.038,21.881-10.297,32.952-15.15c10.47-4.589,20.629-9.944,31.635-13.262c0.581,1.475,1.363,2.904,1.713,4.433
	c4.919,21.495,9.132,43.115,12.083,64.987c2.865,21.239,4.928,42.526,5.91,63.941c0.543,11.822,1.036,23.633,1.018,35.467
	c-0.031,20.156-1.276,40.245-2.922,60.328c-1.123,13.71-2.7,27.36-4.715,40.948c-4.222,28.464-10.104,56.597-17.771,84.344
	c-1.446,5.232-3.009,10.433-4.507,15.65c-0.344,1.198,0.288,2.625,1.449,3.209c1.711,0.861,3.443,1.681,5.17,2.521
	c-25.544,83.748-65.125,160.277-118.99,229.259c-78.844,100.97-177.613,175.83-296.277,224.275
	c-38.231,15.607-77.578,27.62-118,36.138c-18.456,3.889-37.011,7.086-55.708,9.583
	C869.199,1531.914,841.805,1533.958,814.274,1534.224z"/>
<path fill-rule="evenodd" clip-rule="evenodd" fill="#020201" d="M136.633,587.022c0.807-2.746,1.458-5.549,2.443-8.23
	c25.744-70.115,61.584-134.614,107.688-193.395c1.183-1.508,2.377-3.009,3.532-4.539c1.832-2.425,1.77-2.939-0.235-5.855
	c-0.895-1.302-1.657-2.696-2.479-4.052c1.554-1.604,3.193-3.129,4.645-4.815c5.009-5.818,9.845-11.79,14.944-17.527
	c11.479-12.917,23.273-25.54,35.706-37.553c4.372-4.225,8.823-8.369,13.146-12.643c4.528-4.476,9.523-8.433,14.08-12.874
	c2.341-2.031,4.682-4.062,7.028-6.093c1.217,1.027,2.421,2.065,3.642,3.082c2.013,1.676,2.846,1.673,4.991-0.076
	c1.487-1.213,2.928-2.483,4.402-3.712c47.919-39.942,100.092-73.169,156.736-99.355c45.128-20.862,91.919-36.771,140.435-47.678
	c19.351-4.351,38.833-7.941,58.46-10.642c15.513-2.135,31.115-3.567,46.747-4.785c24.93-1.94,49.862-1.853,74.807-1.35
	c15.35,0.31,30.64,1.708,45.932,3.125c12.747,1.181,25.423,2.856,38.062,4.751c17.382,2.606,34.646,5.958,51.754,10.02
	c15.544,3.69,31.02,7.66,46.254,12.505c2.122,0.674,4.182,1.543,6.271,2.322c-0.506,0.803-0.972,1.636-1.523,2.408
	c-9.155,12.82-16.246,26.73-21.516,41.541c-2.887,8.112-5.307,16.391-7.931,24.596c-0.554,1.733-1.985,2.689-3.596,2.249
	c-5.848-1.601-11.671-3.292-17.528-4.855c-32.155-8.58-64.821-14.431-97.909-17.824c-14.938-1.532-29.933-2.434-44.967-2.75
	c-30.396-0.636-60.69,0.333-90.919,3.87c-21.281,2.49-42.397,5.882-63.285,10.529c-55.143,12.268-107.737,31.559-157.654,58.065
	c-45.656,24.243-87.681,53.68-126.117,88.239c-2.352,2.115-5.005,3.962-6.636,6.791c-1.249,0.938-2.605,1.765-3.735,2.832
	c-66.441,62.75-117.074,136.354-151.617,220.99c-2.41,5.906-4.798,11.826-7.006,17.809c-0.874,2.367-2.762,2.287-4.592,2.626
	c-5.712-2.167-11.786-2.813-17.7-4.092C172.993,596.697,154.693,592.348,136.633,587.022z"/>
<path fill-rule="evenodd" clip-rule="evenodd" fill="#8A8B85" d="M1603.132,754.22c-1.005-1.33-1.418-2.873-1.399-4.493
	c0.105-9.31-1.462-18.484-2.604-27.658c-1.378-11.072-2.922-22.139-4.79-33.162c-1.976-11.653-4.136-23.269-6.585-34.815
	c-3.045-14.364-6.389-28.681-10.174-42.866c-4.447-16.665-9.393-33.203-15.045-49.51c-6.387-18.422-13.39-36.605-20.953-54.585
	c-9.059-21.537-19.225-42.531-30.131-63.171c-8.216-15.549-17.063-30.74-26.298-45.714c-15.122-24.521-31.622-48.078-49.304-70.801
	c-7.457-9.583-15.337-18.842-23.125-28.164c-17.655-21.132-36.715-40.957-56.644-59.932c-9.487-9.034-19.464-17.554-29.215-26.311
	c-10.474-9.407-21.558-18.065-32.592-26.793c-16.566-13.105-33.873-25.161-51.465-36.821
	c-20.534-13.611-41.813-25.954-63.467-37.704c-25.05-13.593-50.945-25.349-77.313-36.038c-21.61-8.761-43.604-16.504-65.969-23.234
	c-19.591-5.895-39.378-10.976-59.295-15.542c-11.813-2.708-23.699-5.162-35.715-6.931c-10.418-1.533-20.765-3.555-31.188-5.029
	c-7.899-1.117-15.872-1.716-23.813-2.539c-1.59-0.165-3.235-0.093-4.764-0.485c-4.393-1.126-8.874-1.097-13.341-1.308
	c-5.107-0.24-10.219-0.267-15.274-1.311c-2.165-0.447-4.458-0.316-6.694-0.379c-28.785-0.799-57.572-0.861-86.354,0.029
	c-6.055,0.188-12.085,1.059-18.136,1.483s-12.163,0.083-18.124,1.583c-0.92,0.231-1.902,0.251-2.858,0.302
	c-10.22,0.547-20.292,2.284-30.421,3.61c-12.354,1.619-24.594,3.822-36.852,5.996c-18.566,3.293-36.905,7.586-55.127,12.349
	c-37.15,9.709-73.368,22.211-108.733,37.161c-24.465,10.342-48.26,22.104-71.566,34.806
	c-37.125,20.233-72.396,43.351-105.754,69.349c-7.058,5.501-13.93,11.241-20.943,16.802c-1.479,1.173-3.198,2.042-4.807,3.054
	c-1.396-1.31-2.842-2.575-4.181-3.944c-4.852-4.959-4.854-5.03,0.382-9.534c30.618-26.337,63.208-49.973,97.49-71.307
	c25.555-15.902,51.943-30.265,79.115-43.199c22.534-10.727,45.548-20.29,68.979-28.889c29.146-10.697,58.84-19.542,89.031-26.711
	c14.608-3.469,29.269-6.727,44.122-9.046c9.468-1.479,18.881-3.315,28.359-4.724c7.583-1.127,15.218-1.929,22.844-2.737
	c10.486-1.112,20.983-2.123,31.481-3.111c3.182-0.3,6.384-0.403,9.578-0.565c8.942-0.452,17.88-1.095,26.828-1.287
	c16.946-0.361,33.896-0.875,50.835,0.553c6.367,0.537,12.79,0.385,19.18,0.707c4.785,0.241,9.558,0.731,14.335,1.123
	c1.593,0.13,3.181,0.361,4.775,0.436c11.827,0.556,23.526,2.309,35.278,3.595c14.634,1.601,29.089,4.249,43.588,6.628
	c9.452,1.55,18.825,3.629,28.182,5.705c31.234,6.929,61.936,15.732,92.142,26.29c42.065,14.702,82.529,33,121.552,54.445
	c36.223,19.907,70.626,42.654,103.288,67.988c13.901,10.782,27.418,22.037,40.624,33.68c21.629,19.069,41.965,39.441,61.56,60.55
	c14.366,15.476,27.887,31.702,40.814,48.407c14.492,18.729,28.245,37.98,41.07,57.897c18.727,29.081,35.641,59.177,50.458,90.427
	c14.811,31.237,27.648,63.287,38.255,96.193c9.714,30.136,17.81,60.708,23.775,91.829c2.948,15.38,5.642,30.79,7.678,46.325
	c1.538,11.728,2.912,23.459,4.051,35.235c0.678,7.009,1.317,14.002,1.558,21.033C1603.381,751.028,1603.204,752.626,1603.132,754.22
	z"/>
<path fill-rule="evenodd" clip-rule="evenodd" fill="#8A8B85" d="M330.103,285.539c-4.556,4.44-9.552,8.398-14.08,12.874
	c-4.323,4.273-8.774,8.418-13.146,12.643c-12.432,12.013-24.227,24.636-35.706,37.553c-5.099,5.738-9.935,11.709-14.944,17.527
	c-1.452,1.687-3.091,3.212-4.645,4.815c-6.087-5.222-11.11-11.459-16.497-17.352c-0.645-0.706-1.132-1.558-1.785-2.255
	c-12.464-13.296-24.886-26.633-37.447-39.838c-4.488-4.718-5.783-4.672-9.828,0.346c-8.023,9.953-16.086,19.891-23.679,30.17
	c-10.063,13.625-19.911,27.418-29.075,41.682c-10.025,15.603-19.552,31.5-28.642,47.668c-8.153,14.503-15.723,29.303-22.845,44.323
	c-10.545,22.241-20.134,44.887-28.645,68.005c-8.065,21.91-15.076,44.139-21.264,66.627c-4.149,15.08-7.952,30.26-10.815,45.657
	c-2.275,12.237-4.734,24.439-7.01,36.676c-0.816,4.39-1.412,8.826-1.976,13.258c-0.885,6.968-1.493,13.974-2.522,20.919
	c-1.172,7.917-1.82,15.862-2.248,23.843c-0.064,1.199-0.831,2.36-1.272,3.539c-0.441-7.682,0.143-15.325,0.903-22.96
	c0.316-3.178,0.677-6.352,1.019-9.528c0.855-7.941,1.516-15.909,2.615-23.817c1.407-10.12,3.204-20.185,4.768-30.284
	c3.13-20.222,7.567-40.173,12.488-60.017c6.078-24.511,13.39-48.658,21.846-72.458c7.813-21.992,16.363-43.688,26.315-64.807
	c5.721-12.14,11.398-24.313,17.572-36.224c17.381-33.529,37.031-65.683,58.981-96.439c10.592-14.84,21.729-29.247,33.169-43.429
	c1.193-1.479,2.581-2.819,4.002-4.084c0.346-0.308,1.289-0.267,1.774-0.023c0.834,0.42,1.613,1.043,2.262,1.726
	c10.577,11.116,21.208,22.181,31.663,33.411c8.057,8.656,15.874,17.534,23.824,26.29c1.235,1.361,3.031,1.342,4.16,0.102
	c0.215-0.236,0.412-0.489,0.621-0.731c2.917-3.394,5.877-6.753,8.747-10.188c16.626-19.901,34.626-38.5,53.354-56.412
	c1.386-1.326,2.756-2.671,4.175-3.961c3.169-2.883,4.072-2.847,7.096,0.293c1.108,1.15,2.01,2.545,3.258,3.5
	C327.59,284.904,328.935,285.105,330.103,285.539z"/>
<path fill-rule="evenodd" clip-rule="evenodd" fill="#8A8B85" d="M384.692,369.856c8.923-8.202,7.006-8.2,15.01,0.599
	c6.021,6.619,12.419,12.896,18.686,19.291c1.325,1.352,2.78,1.303,4.234,0.054c0.728-0.625,1.42-1.291,2.14-1.924
	c4.803-4.221,9.564-8.491,14.422-12.649c39.855-34.12,83.755-61.92,131.451-83.705c32.353-14.777,65.881-26.22,100.461-34.576
	c15.221-3.678,30.59-6.623,46.035-9.137c7.244-1.18,14.645-1.434,21.863-2.73c10.751-1.932,21.711-1.198,32.447-3.019
	c20.784-0.801,41.571-0.863,62.35,0.043c6.062,0.264,12.116,0.825,18.153,1.445c8.576,0.882,17.143,1.875,25.695,2.957
	c5.385,0.681,10.732,1.646,16.104,2.424c19.633,2.845,38.907,7.383,58.013,12.604c42.119,11.508,82.29,27.898,120.563,48.896
	c29.226,16.034,56.74,34.624,82.689,55.567c15.698,12.67,30.744,26.066,44.947,40.36c33.744,33.96,62.838,71.55,87.067,112.877
	c9.063,15.458,17.278,31.353,24.896,47.565c0.947,2.016,1.98,4.019,3.244,5.84c0.375,0.54,1.679,0.594,2.55,0.572
	c0.563-0.014,1.14-0.533,1.668-0.889c11.156-7.52,22.016-15.409,31.014-25.542c1.762-1.985,3.794-3.262,6.39-3.946
	c4.94-1.301,9.805-2.891,14.717-4.303c3.707-1.066,3.9-0.945,5.678,2.859c11.113,23.784,20.29,48.316,28.161,73.34
	c4.602,14.63,8.766,29.387,11.988,44.395c0.334,1.551,0.957,3.042,1.477,4.55c0.321,0.933,1.417,1.54,2.215,1.205
	c2.942-1.234,5.896-2.443,8.802-3.762c14.844-6.736,29.671-13.509,44.513-20.25c1.157-0.525,2.376-0.916,3.572-1.352
	c0.695-0.253,2.069,0.432,2.326,1.236c0.872,2.734,1.591,5.523,2.589,8.209c0.419,1.127,1.212,2.304,2.173,2.972
	c0.608,0.423,1.841-0.051,2.793-0.123c0.313,0.417,0.396,0.875,0.253,1.375c-11.006,3.317-21.165,8.672-31.635,13.261
	c-11.071,4.853-21.963,10.112-32.952,15.15c-1.422,0.652-2.964,1.044-4.45,1.558c-0.694-2.774-1.409-5.544-2.079-8.325
	c-4.323-17.934-9.296-35.682-15.097-53.196c-6.105-18.435-13.416-36.408-20.844-54.335c-1.339-3.231-2.981-6.337-4.489-9.499
	c-1.139-2.388-2.885-2.41-4.742-1.814c-4.24,1.359-8.443,2.865-12.749,3.976c-4.161,1.073-7.506,3.103-10.405,6.303
	c-7.521,8.305-16.355,15.102-25.568,21.41c-2.354,1.612-4.697,3.318-7.652,3.735c-8.932-19.138-18.352-38.023-29.112-56.204
	c-18.623-31.463-39.978-60.985-64.434-88.146c-24.229-26.906-50.518-51.699-79.42-73.596
	c-26.563-20.125-54.652-37.867-84.309-53.097c-13.944-7.161-28.214-13.615-42.718-19.552c-20.722-8.483-41.824-15.833-63.487-21.561
	c-16.984-4.49-34.001-8.755-51.377-11.561c-12.923-2.087-25.793-4.458-38.876-5.352c-1.274-0.087-2.584-0.123-3.806-0.45
	c-4.07-1.09-8.237-1.035-12.387-1.222c-5.112-0.231-10.276-0.075-15.325-0.767c-5.422-0.743-10.827-0.907-16.26-0.926
	c-8.957-0.032-17.915,0-26.873,0.035c-2.238,0.008-4.521-0.133-6.705,0.245c-6.974,1.209-14.02,1.089-21.041,1.43
	c-2.556,0.124-5.181-0.064-7.653,0.462c-8.156,1.736-16.498,1.782-24.725,2.983c-13.276,1.939-26.568,3.861-39.644,6.738
	c-24.337,5.354-48.372,11.842-71.9,20.23c-30.805,10.982-60.481,24.333-88.891,40.508c-6.389,3.638-12.697,7.424-18.952,11.288
	c-22.342,13.801-43.618,29.118-63.782,45.922c-7.6,6.333-15.487,12.409-22.151,19.815c-1.639-0.186-2.971-0.948-4.118-2.113
	c-5.1-5.185-10.328-10.25-15.289-15.564c-5.17-5.54-10.127-11.281-15.081-17.018C386.055,372.768,385.473,371.227,384.692,369.856z"
	/>
<path fill-rule="evenodd" clip-rule="evenodd" fill="#8A8B85" d="M97.979,856.154c1.345,1.97,1.229,4.26,1.379,6.476
	c1.36,20.111,4.189,40.029,7.519,59.9c6.512,38.866,16.29,76.88,29.306,114.062c7.504,21.435,16.106,42.427,25.628,63.051
	c17.746,38.436,38.971,74.849,63.294,109.474c12.693,18.069,26.255,35.46,40.612,52.242c14.358,16.783,29.332,32.985,45.227,48.318
	c17.043,16.439,34.83,32.032,53.388,46.757c18.307,14.525,37.29,28.088,56.915,40.761c4.028,2.601,8.111,5.12,12.222,7.589
	c2.509,1.508,4.076,1.385,6.095-0.424c2.141-1.918,4.168-3.917,6.755-5.314c8.692-4.695,15.086-11.709,19.957-20.208
	c0.631-1.101,1.261-2.224,2.063-3.195c0.318-0.386,1.161-0.634,1.664-0.516c1.546,0.363,3.042,0.935,4.559,1.425
	c-2.024,4.275-4.004,8.528-5.49,13.074c-3.71,11.349-11.024,20.096-21.239,26.17c-3.931,2.337-7.219,5.168-10.159,8.549
	c-1.448-0.628-2.993-1.097-4.329-1.909c-21.859-13.295-42.802-27.92-63.001-43.612c-12.364-9.606-24.344-19.661-36.127-29.981
	c-17.82-15.607-34.483-32.377-50.674-49.61c-12.247-13.037-23.722-26.781-34.886-40.768c-15.163-18.997-29.081-38.886-42.161-59.356
	c-12.047-18.854-23.115-38.274-33.297-58.208c-17.915-35.072-32.651-71.429-44.459-108.984
	c-8.336-26.515-15.172-53.423-20.36-80.718c-1.904-10.015-3.737-20.074-4.79-30.25c-0.722-6.975-2.202-13.875-2.839-20.854
	C99.414,885.476,97.186,870.907,97.979,856.154z"/>
<path fill-rule="evenodd" clip-rule="evenodd" fill="#CBFE66" d="M480.169,1362.958c-9.633-5.07-18.619-11.186-27.707-17.136
	c-17.135-11.219-33.432-23.584-49.37-36.415c-6.967-5.608-13.46-11.801-20.313-17.558c-13.741-11.546-26.246-24.375-38.63-37.303
	c-8.617-8.994-16.833-18.376-24.887-27.9c-7.643-9.039-14.889-18.373-22.063-27.772c-11.452-15.005-22.048-30.601-31.93-46.681
	c-14.076-22.901-26.829-46.494-37.838-71.047c-6.805-15.177-13.16-30.519-18.833-46.141c-7.528-20.732-14.006-41.797-19.146-63.254
	c-3.568-14.896-6.997-29.826-9.221-45.005c-0.832-5.68-2.215-11.28-2.973-16.967c-1.054-7.908-1.751-15.864-2.61-23.798
	c-0.344-3.172-0.734-6.339-1.062-9.512c-0.261-2.541-0.53-5.084-0.671-7.633c-0.441-7.971-0.008-15.996-1.582-23.899
	c-0.247-1.237-0.142-2.551-0.147-3.83c-0.051-13.435-0.114-26.869-0.107-40.304c0.001-1.905,0.356-3.81,0.545-5.702
	c0.202-1.227,0.552-2.462,0.585-3.707c0.142-5.414,0.169-10.83,0.286-16.245c0.041-1.907-0.205-3.963,0.414-5.688
	c1.661-4.634,1.457-9.402,1.65-14.16c0.065-1.59-0.138-3.294,0.362-4.746c2.424-7.023,0.739-14.656,3.336-21.628
	c0.531-8.27,2.449-16.314,3.858-24.447c1.955-11.28,4.602-22.404,7.162-33.546c3.349-14.574,7.554-28.914,12.229-43.118
	c0.79-2.399,2.002-4.72,1.77-7.374c1.938-5.225,3.876-10.451,5.815-15.676c1.83-0.339,3.719-0.259,4.592-2.626
	c2.208-5.983,4.596-11.903,7.006-17.809c34.542-84.637,85.175-158.24,151.617-220.99c1.13-1.067,2.486-1.894,3.735-2.832
	c2.111,2.646,4.177,5.329,6.369,7.905c0.558,0.656,1.519,0.97,2.289,1.441c0.774,1.37,1.356,2.911,2.367,4.082
	c4.954,5.736,9.911,11.478,15.081,17.018c4.96,5.314,10.188,10.379,15.289,15.564c1.146,1.166,2.479,1.928,4.123,2.111
	c0.503,1.173,0.975,2.359,1.508,3.518c0.446,0.97,0.262,1.863-0.323,2.65c-0.567,0.764-1.232,1.462-1.904,2.141
	c-12.112,12.231-24.76,23.943-35.664,37.339c-4.825,5.927-10.114,11.476-14.937,17.405c-8.444,10.379-16.376,21.163-24.058,32.11
	c-10.807,15.398-20.87,31.307-29.707,47.91c-9.586,18.01-19.071,36.104-26.7,55.071c-4.04,10.044-8.068,20.088-11.681,30.309
	c-5.419,15.333-9.767,30.971-14.149,46.606c-0.51,1.819-0.668,3.746-0.882,5.635c-0.155,1.367,0.444,2.431,1.658,3.15
	c0.817,0.483,1.591,1.04,2.385,1.564c-0.935,0.199-1.864,0.432-2.806,0.587c-1.318,0.217-2.492,0.674-2.958,2.031
	c-0.623,1.813-1.351,3.629-1.656,5.504c-2.001,12.282-5.079,24.36-6.574,36.753c-0.688,5.696-1.18,11.444-2.168,17.086
	c-0.777,4.438-1.179,8.856-1.395,13.324c-0.093,1.916,0.018,3.893-0.425,5.73c-1.291,5.353-1.154,10.793-1.332,16.218
	c-0.545,16.629-0.262,33.258,0.07,49.886c0.047,5.753,0.067,11.507,0.156,17.259c0.035,2.234-0.184,4.586,0.43,6.674
	c1.291,4.391,1.171,8.845,1.359,13.305c0.08,1.914-0.01,3.895,0.455,5.724c1.893,7.461,1.574,15.206,3.213,22.724
	c1.9,8.711,2.718,17.663,4.711,26.35c4.639,20.215,9.733,40.304,16.255,60.038c9.142,27.664,20.167,54.505,33.378,80.454
	c2.752,5.406,5.936,10.592,8.725,15.98c4.266,8.24,9.173,16.095,14.009,23.996c8.845,14.454,18.537,28.332,28.745,41.845
	c4.617,6.113,9.483,12.046,14.406,17.92c6.356,7.584,12.563,15.332,19.404,22.464c11.506,11.996,23.336,23.69,35.278,35.256
	c6.188,5.993,12.762,11.613,19.428,17.078c7.157,5.868,14.608,11.379,21.962,17.006c20.848,15.95,42.868,30.133,65.949,42.584
	c18.838,10.163,38.051,19.58,57.98,27.543c22.573,9.021,45.622,16.532,69.007,23.036c6.728,1.871,13.564,3.566,20.565,4.292
	c4.628,2.44,10.011,1.838,14.79,3.67c10.154,0.869,19.986,3.991,30.22,4.331c0.94,0.03,1.906,0.275,2.799,0.593
	c2.767,0.982,5.641,0.987,8.512,1.098c2.232,0.086,4.586-0.188,6.668,0.431c5.002,1.485,10.097,1.386,15.19,1.523
	c2.52,0.068,4.21,0.976,5.019,3.514c0.405,1.273,1.602,1.889,2.971,2.037c1.58,0.172,3.192,0.275,4.438,1.468
	c-0.898,0.202-1.799,0.396-2.696,0.607c-2.393,0.564-3.363,1.694-2.851,3.765c1.103,4.463,1.485,9.128,3.633,13.305
	c0.066,1.266-0.057,2.575,0.229,3.788c2.75,11.723,5.577,23.428,8.362,35.143c0.366,1.539,0.688,3.095,0.914,4.66
	c0.417,2.89-0.642,4.221-3.403,4.448c-1.888,0.156-3.775,0.329-5.663,0.494c-15.036-0.139-29.948-1.775-44.859-3.538
	c-9.515-1.125-18.979-2.519-28.437-4.043c-27.141-4.374-53.797-10.76-80.083-18.765c-45.381-13.819-88.559-32.697-129.657-56.364
	c-1.659-0.955-3.406-1.776-4.982-2.849C482.536,1360.741,481.493,1362.3,480.169,1362.958z"/>
<path fill-rule="evenodd" clip-rule="evenodd" fill="#CBFE66" d="M1315.38,591.413c2.953-0.42,5.297-2.127,7.65-3.739
	c9.213-6.309,18.047-13.105,25.568-21.41c2.899-3.201,6.244-5.23,10.405-6.303c4.306-1.111,8.509-2.617,12.749-3.976
	c1.857-0.595,3.604-0.573,4.742,1.814c1.508,3.162,3.15,6.268,4.489,9.499c7.428,17.927,14.738,35.9,20.844,54.335
	c5.801,17.514,10.773,35.262,15.097,53.196c0.67,2.781,1.385,5.551,2.079,8.325c-1.492,1.645-3.021,3.124-2.42,5.808
	c1.117,4.983,1.894,10.042,2.871,15.057c3.24,16.626,5.587,33.375,7.469,50.212c2.916,26.098,3.851,52.255,3.494,78.488
	c-0.244,17.912-1.601,35.742-3.386,53.561c-2.104,21.002-5.423,41.793-9.669,62.462c-8.51,41.436-21.094,81.587-37.979,120.354
	c-46.25,106.185-116.401,193.196-210.077,261.268c-2.312,1.68-4.73,3.212-7.104,4.816c-0.497-1.818-0.679-3.763-2.15-5.188
	c-3.646-3.528-7.122-7.256-10.966-10.553c-4.33-3.713-8.938-7.109-13.516-10.522c-6.383-4.76-12.301-10.021-17.724-15.846
	c-0.648-0.696-1.331-1.363-1.978-2.062c-1.182-1.277-2.765-1.428-4.349-1.588c0.104-1.271,0.359-2.553,0.278-3.813
	c-0.137-2.14,0.799-3.676,2.331-4.979c0.486-0.414,0.967-0.84,1.486-1.21c10.648-7.595,21.427-14.996,31.521-23.36
	c6.382-5.289,13.152-10.108,19.129-15.891c1.147-1.109,2.267-2.31,3.598-3.154c3.551-2.254,6.451-5.229,9.392-8.153
	c10.651-10.593,21.258-21.23,31.872-31.86c1.354-1.356,2.875-2.617,3.943-4.18c5.434-7.942,12.794-14.208,18.62-21.858
	c7.535-9.895,15.277-19.641,22.415-29.826c7.692-10.977,15.103-22.141,22.027-33.64c7.746-12.861,15.1-25.927,21.919-39.29
	c2.898-5.679,5.204-11.657,8.02-17.382c6.351-12.911,11.604-26.289,16.441-39.797c4.621-12.903,8.846-25.951,12.672-39.142
	c5.16-17.784,8.958-35.845,12.36-54c0.992-5.296,2.551-10.558,2.383-16.063c-0.037-1.237,0.532-2.484,0.732-3.741
	c0.35-2.199,0.755-4.399,0.916-6.616c0.601-8.26,2.581-16.392,2.256-24.74c-0.037-0.93,0.244-1.907,0.542-2.809
	c0.918-2.787,0.939-5.663,0.941-8.538c0.018-22.693,0.026-45.385,0.015-68.078c-0.001-1.914,0.187-3.93-0.328-5.723
	c-1.527-5.32-1.287-10.755-1.537-16.167c-0.088-1.912,0.067-3.927-0.489-5.708c-1.167-3.735-1.242-7.542-1.456-11.367
	c-0.089-1.586-0.338-3.169-0.609-4.737c-0.979-5.643-2.215-11.251-2.95-16.924c-1.149-8.863-3.062-17.579-5.076-26.247
	c-2.957-12.722-6.217-25.372-9.816-37.948c-4.664-16.293-10.497-32.133-16.643-47.883c-1.972-5.05-4.264-9.975-6.375-14.971
	c-0.809-1.914-0.662-3.709,0.842-5.303C1313.769,593.396,1314.555,592.386,1315.38,591.413z"/>
<path fill-rule="evenodd" clip-rule="evenodd" fill="#8A8B85" d="M771.97,1399.028c1.623,0.133,3.24,0.32,3.84,2.193
	c0.585,1.824,1.172,3.653,1.627,5.512c1.443,5.897,2.782,11.82,4.242,17.713c1.341,5.414,1.942,5.827,8.015,6.016
	c1.918,0.06,3.839,0.117,5.757,0.09c15.353-0.225,30.726-0.065,46.051-0.852c10.186-0.521,20.411-1.235,30.539-2.768
	c6-0.907,12.042-1.541,18.062-2.323c31.119-4.042,61.653-10.806,91.712-19.765c37.481-11.172,73.604-25.722,108.33-43.716
	c14.768-7.652,29.276-15.771,43.339-24.667c1.892-1.196,3.829-2.318,5.727-3.505c1.905-1.19,3.622-0.799,5.271,0.521
	c1.998,1.598,4.08,3.1,5.991,4.795c1.603,1.421,3.489,1.379,5.389,1.494c-0.161,0.276-0.254,0.663-0.493,0.812
	c-15.996,9.89-31.732,20.193-48.213,29.302c-36.138,19.976-73.828,36.281-113.144,48.922c-26.77,8.606-54.013,15.25-81.653,20.23
	c-13.174,2.374-26.458,4.307-39.77,5.697c-11.41,1.191-22.872,2.055-34.338,2.827c-18.826,1.268-37.644,1.037-56.471,1.119
	c-3.153,0.014-6.404,0.442-9.382-1.114c1.898-0.165,3.785-0.338,5.673-0.494c2.761-0.228,3.82-1.559,3.403-4.448
	c-0.226-1.565-0.548-3.121-0.914-4.66c-2.786-11.715-5.612-23.42-8.362-35.143C771.913,1401.603,772.036,1400.293,771.97,1399.028z"
	/>
<path fill-rule="evenodd" clip-rule="evenodd" fill="#99FE01" d="M1111.522,1289.421c-55.281,36.443-115.091,62.385-179.567,77.552
	c-17.128,4.029-34.384,7.264-51.82,9.646c-13.318,1.818-26.674,3.024-40.07,4.081c-22.063,1.74-44.109,1.499-66.18,0.652
	c-1.248-1.193-2.859-1.297-4.439-1.469c-1.369-0.148-2.565-0.764-2.971-2.037c-0.809-2.538-2.499-3.445-5.019-3.514
	c-5.093-0.138-10.188-0.038-15.19-1.523c-2.082-0.619-4.437-0.345-6.668-0.431c-2.872-0.11-5.746-0.115-8.512-1.098
	c-0.893-0.317-1.858-0.563-2.799-0.593c-10.234-0.34-20.065-3.462-30.22-4.331c-4.779-1.832-10.162-1.229-14.789-3.669
	c0.382-1.863,0.703-3.742,1.154-5.59c3.241-13.246,6.508-26.486,9.767-39.729c1.411-4.219,2.823-8.437,4.235-12.654
	c4.09,0.646,8.181,1.217,12.258,2.018c9.055,1.778,18.207,3.1,27.354,4.353c8.206,1.124,16.414,2.38,24.74,2.328
	c0.947-0.006,1.894,0.264,2.845,0.362c3.483,0.359,6.967,0.982,10.453,1.002c17.879,0.099,35.76,0.061,53.64,0.015
	c2.547-0.007,5.161-0.017,7.624-0.563c3.786-0.84,7.596-0.908,11.417-1.105c2.551-0.131,5.129-0.083,7.646-0.45
	c11.972-1.745,23.964-3.394,35.876-5.49c9.717-1.711,19.336-3.98,28.979-6.093c0.849-0.187,1.55-1.049,2.32-1.597
	c5.08-1.329,10.161-2.658,15.242-3.987c1.568-0.153,3.22-0.042,4.694-0.5c25.651-7.971,50.777-17.271,74.874-29.253
	c13.458-6.692,26.763-13.649,39.634-21.405c13.968-8.417,27.385-17.66,40.486-27.371c11.047-8.189,21.733-16.845,31.992-25.971
	c8.832-7.856,17.057-16.396,25.529-24.655c0.679-0.662,1.394-1.411,1.734-2.263c0.336-0.841,0.22-1.862,0.301-2.805
	c0.323-0.549,0.646-1.099,0.968-1.647c2.157-0.219,2.157-0.219,2.676-2.294l-0.07,0.082c1.402,0.055,2.024-0.653,1.976-2.019
	l-0.075,0.081c1.356,0.003,1.998-0.691,1.977-2.03l-0.087,0.091c1.351-0.009,1.994-0.703,1.979-2.038l-0.091,0.098
	c2.173-0.149,3.252-1.871,4.51-3.251c14.663-16.091,27.798-33.38,40.066-51.338c8.479-12.409,16.096-25.34,23.465-38.438
	c9.262-16.461,17.203-33.531,24.423-50.957c6.974-16.834,13.037-33.991,17.84-51.571c5.385-19.708,10.229-39.528,13.01-59.821
	c0.735-5.37,1.27-10.782,2.226-16.113c1.363-7.597,1.677-15.217,1.381-22.894c0.501-6.376,1.148-12.745,1.479-19.13
	c1.607-31.094-0.26-61.987-4.994-92.764c-4.143-26.924-10.286-53.346-18.901-79.168c-31.106-93.222-84.941-170.763-161.749-232.008
	c-75.446-60.16-161.448-95.009-257.476-104.975c-1.253-1.125-2.798-1.366-4.396-1.438c-4.424-0.201-8.927,0.047-13.252-0.714
	c-5.664-0.996-11.324-1.117-17.006-1.155c-11.071-0.075-22.144-0.011-33.216,0.028c-2.529,0.009-5.059,0.138-7.587,0.244
	c-1.31,0.055-2.428,0.602-3.372,1.505c-3.779,0.135-7.558,0.27-11.336,0.405c-3.507-0.739-7.106-0.641-10.494,0.118
	c-7.202,1.615-14.688,1.022-21.801,3.088c-14.6,1.74-28.953,4.838-43.263,8.093c-14.956,3.401-29.618,7.91-44.117,12.871
	c-14.51,4.965-28.755,10.607-42.773,16.902c-20.754,9.32-40.755,19.972-59.984,32.079c-14.346,9.032-28.194,18.778-41.557,29.242
	c-9.828,7.695-19.491,15.594-28.637,24.045c-21.877,20.215-42.438,41.703-60.22,65.684c-7.425,10.012-14.748,20.119-21.638,30.5
	c-5.296,7.98-10.178,16.249-14.931,24.59c-9.196,16.137-17.625,32.672-24.94,49.708c-9.076,21.136-17.081,42.707-22.621,65.104
	c-0.612,2.473-1.545,4.866-2.309,7.302c-0.686,2.189-2.543,2.672-4.445,3.104c-3.415-0.604-6.818-1.28-10.245-1.8
	c-13.727-2.085-27.47-4.035-41.362-4.645c-0.793-0.524-1.568-1.081-2.385-1.564c-1.214-0.719-1.813-1.783-1.658-3.15
	c0.214-1.889,0.372-3.816,0.882-5.635c4.383-15.635,8.73-31.273,14.149-46.606c3.613-10.22,7.642-20.264,11.681-30.309
	c7.629-18.967,17.113-37.061,26.7-55.071c8.837-16.603,18.9-32.511,29.707-47.91c7.682-10.947,15.614-21.731,24.058-32.11
	c4.823-5.929,10.112-11.478,14.937-17.405c10.904-13.396,23.551-25.108,35.664-37.339c0.672-0.678,1.337-1.377,1.904-2.141
	c0.585-0.788,0.77-1.68,0.323-2.65c-0.533-1.158-1.004-2.345-1.508-3.518c6.659-7.404,14.546-13.48,22.146-19.813
	c20.164-16.804,41.439-32.121,63.782-45.922c6.255-3.864,12.563-7.65,18.952-11.288c28.409-16.175,58.086-29.526,88.891-40.508
	c23.528-8.388,47.563-14.876,71.9-20.23c13.076-2.877,26.368-4.799,39.644-6.738c8.227-1.201,16.569-1.247,24.725-2.983
	c2.472-0.526,5.097-0.338,7.653-0.462c7.021-0.34,14.067-0.22,21.041-1.43c2.184-0.378,4.467-0.237,6.705-0.245
	c8.958-0.035,17.916-0.067,26.873-0.035c5.433,0.019,10.838,0.183,16.26,0.926c5.049,0.691,10.213,0.536,15.325,0.767
	c4.149,0.188,8.316,0.132,12.387,1.222c1.222,0.327,2.531,0.363,3.806,0.45c13.083,0.894,25.953,3.265,38.876,5.352
	c17.376,2.806,34.393,7.071,51.377,11.561c21.663,5.728,42.766,13.078,63.487,21.561c14.504,5.937,28.773,12.391,42.718,19.552
	c29.656,15.23,57.745,32.971,84.309,53.097c28.902,21.897,55.191,46.689,79.42,73.596c24.456,27.16,45.811,56.683,64.434,88.146
	c10.761,18.181,20.181,37.066,29.112,56.204c-0.823,0.977-1.609,1.987-2.484,2.914c-1.504,1.594-1.65,3.39-0.842,5.303
	c2.111,4.997,4.403,9.921,6.375,14.971c6.146,15.75,11.979,31.59,16.643,47.883c3.6,12.576,6.859,25.226,9.816,37.948
	c2.015,8.668,3.927,17.384,5.076,26.247c0.735,5.673,1.972,11.281,2.95,16.924c0.271,1.568,0.521,3.151,0.609,4.737
	c0.214,3.825,0.289,7.631,1.456,11.367c0.557,1.781,0.401,3.796,0.489,5.708c0.25,5.412,0.01,10.847,1.537,16.167
	c0.515,1.792,0.327,3.809,0.328,5.723c0.012,22.692,0.003,45.384-0.015,68.078c-0.002,2.875-0.023,5.751-0.941,8.538
	c-0.298,0.901-0.579,1.879-0.542,2.809c0.325,8.349-1.655,16.48-2.256,24.74c-0.161,2.217-0.566,4.417-0.916,6.616
	c-0.2,1.257-0.77,2.504-0.732,3.741c0.168,5.505-1.391,10.767-2.383,16.063c-3.402,18.155-7.2,36.216-12.36,54
	c-3.826,13.19-8.051,26.238-12.672,39.142c-4.838,13.508-10.091,26.886-16.441,39.797c-2.815,5.725-5.121,11.703-8.02,17.382
	c-6.819,13.363-14.173,26.429-21.919,39.29c-6.925,11.499-14.335,22.663-22.027,33.64c-7.138,10.186-14.88,19.932-22.415,29.826
	c-5.826,7.65-13.187,13.916-18.62,21.858c-1.068,1.563-2.589,2.823-3.943,4.18c-10.614,10.63-21.221,21.268-31.872,31.86
	c-2.94,2.925-5.841,5.899-9.392,8.153c-1.331,0.845-2.45,2.045-3.598,3.154c-5.977,5.782-12.747,10.602-19.129,15.891
	c-10.095,8.364-20.873,15.766-31.521,23.36c-0.52,0.37-1,0.796-1.486,1.21c-1.532,1.304-2.468,2.84-2.331,4.979
	C1111.881,1286.869,1111.626,1288.15,1111.522,1289.421z"/>
<path fill-rule="evenodd" clip-rule="evenodd" fill="#8A8B85" d="M203.277,620.445c0.232,2.653-0.98,4.975-1.77,7.374
	c-4.674,14.204-8.879,28.544-12.229,43.118c-2.561,11.142-5.207,22.266-7.162,33.546c-1.409,8.133-3.327,16.178-3.858,24.447
	c-2.597,6.973-0.912,14.605-3.336,21.628c-0.5,1.452-0.297,3.155-0.362,4.746c-0.193,4.758,0.01,9.526-1.65,14.16
	c-0.619,1.725-0.373,3.781-0.414,5.688c-0.116,5.415-0.144,10.831-0.286,16.245c-0.033,1.245-0.383,2.48-0.585,3.707
	c-0.221-10.554-0.651-21.097,1.027-31.586c0.351-2.193,0.217-4.465,0.292-6.702c0.192-5.75,0.528-11.466,1.381-17.187
	c0.941-6.306,1.333-12.692,2.146-19.036c2.889-22.524,7.135-44.781,12.48-66.832c2.106-8.688,4.554-17.295,6.917-25.919
	c0.589-2.149,1.318-4.287,2.263-6.297c0.321-0.683,1.46-1.19,2.308-1.356C201.333,620.012,202.327,620.338,203.277,620.445z"/>
<path fill-rule="evenodd" clip-rule="evenodd" fill="#8A8B85" d="M247.86,841.161c0.972,1.379,1.079,2.978,1.13,4.578
	c0.385,11.844,2.311,23.513,3.81,35.24c2.435,19.059,6.226,37.86,10.74,56.488c4.818,19.885,10.897,39.434,18.083,58.615
	c8.201,21.89,17.722,43.188,28.543,63.907c16.041,30.712,34.815,59.636,56.303,86.825c17.495,22.138,36.472,42.91,57.106,62.125
	c26.998,25.141,56.171,47.482,87.622,66.81c13.906,8.545,28.115,16.551,42.707,23.864c38.179,19.135,78.089,33.533,119.583,43.574
	c2.174,0.526,4.371,0.964,6.562,1.421c1.992,0.417,2.99-0.125,3.528-2.18c1.296-4.944,2.496-9.914,3.737-14.873
	c0.621-2.479,1.194-4.973,1.885-7.433c0.778-2.773,0.958-2.832,5.002-2.762c-3.263,13.25-6.53,26.49-9.771,39.736
	c-0.452,1.848-0.772,3.727-1.154,5.59c-7.002-0.727-13.838-2.422-20.566-4.293c-23.385-6.504-46.435-14.016-69.007-23.036
	c-19.929-7.963-39.142-17.38-57.98-27.543c-23.081-12.451-45.101-26.634-65.949-42.584c-7.354-5.627-14.805-11.138-21.962-17.006
	c-6.666-5.465-13.24-11.085-19.428-17.078c-11.942-11.565-23.772-23.26-35.278-35.256c-6.841-7.132-13.048-14.88-19.404-22.464
	c-4.922-5.874-9.789-11.807-14.406-17.92c-10.208-13.513-19.899-27.391-28.745-41.845c-4.836-7.901-9.744-15.756-14.009-23.996
	c-2.789-5.389-5.972-10.574-8.725-15.98c-13.211-25.949-24.236-52.79-33.378-80.454c-6.522-19.734-11.616-39.823-16.255-60.038
	c-1.993-8.687-2.811-17.639-4.711-26.35c-1.64-7.518-1.32-15.263-3.213-22.724c-0.464-1.829-0.375-3.81-0.455-5.724
	c-0.188-4.46-0.068-8.914-1.359-13.305c-0.614-2.088-0.396-4.439-0.43-6.674C247.928,852.667,247.908,846.914,247.86,841.161z"/>
<path fill-rule="evenodd" clip-rule="evenodd" fill="#020201" d="M839.494,332.272c-2.834,5.007-5.554,10.083-8.525,15.006
	c-6.247,10.351-9.506,21.586-10.344,33.583c-0.134,1.912-0.214,3.828-0.335,5.741c-0.041,0.652-1.315,1.839-1.965,1.839
	c-1.591,0-3.182,0.001-4.771,0.007c-8.634,0.028-17.271-0.082-25.902,0.119c-13.439,0.313-26.847,1.315-40.173,3.058
	c-17.441,2.28-34.742,5.434-51.775,9.856c-72.667,18.863-136.475,53.89-190.859,105.671
	c-61.085,58.161-101.733,128.385-122.264,210.169c-5.219,20.791-8.467,41.948-10.531,63.324
	c-2.784,28.825-1.914,57.511,1.671,86.178c-1.271,2.986-1.505,5.824,1.18,8.244c0.222,1.731,0.443,3.464,0.665,5.196
	c-0.997,1.416-0.975,3.018-0.702,4.6c1.305,7.556,2.437,15.15,4.032,22.646c6.001,28.196,14.353,55.648,25.686,82.211
	c21.464,50.306,51.454,94.862,89.6,133.969c13.191,13.523,27.376,25.95,42.25,37.609c37.324,29.255,78.378,51.648,123.088,67.427
	c40.387,14.253,82.057,21.778,124.737,24.048c20.804,1.106,41.582,0.101,62.272-1.95c14.612-1.448,29.121-3.809,43.541-6.773
	c33.665-6.921,66.002-17.716,97.041-32.415c40.186-19.032,76.624-43.619,109.148-73.967c5.143-4.8,10.226-9.663,15.352-14.48
	c0.887-0.834,2.546-0.812,3.52-0.021c3.225,2.616,6.39,5.311,9.679,7.844c5.882,4.53,12.468,7.883,19.433,10.266
	c6.909,2.364,13.893,4.842,21.433,4.313c0.619-0.044,1.255,0.182,1.887,0.259c0.922,0.114,1.354,1.044,0.979,2.189
	c-0.393,1.195-0.811,2.382-1.217,3.572c0,0,0.091-0.098,0.09-0.097c-1.344,0.016-1.981,0.715-1.978,2.037l0.087-0.091
	c-1.328,0.025-1.959,0.729-1.977,2.03l0.075-0.081c-1.271,0.073-1.91,0.766-1.976,2.019l0.07-0.082
	c-1.394,0.18-2.086,1.177-2.676,2.294c-0.322,0.549-0.645,1.099-0.969,1.648c-1.105,0.583-2.355,0.993-3.28,1.784
	c-1.694,1.451-3.194,3.13-4.781,4.707c-59.209,58.813-128.6,100.501-208.722,124.162c-1.191,0.353-2.258,1.128-3.387,1.707
	c-6.147,1.533-12.292,3.064-18.436,4.597c-0.632,0.053-1.28,0.03-1.893,0.17c-17.113,3.919-34.32,7.343-51.77,9.383
	c-9.508,1.112-19.036,2.103-28.576,2.882c-6.682,0.546-13.401,0.609-20.102,0.946c-9.899,0.498-19.797,0.513-29.693-0.031
	c-12.113-0.666-24.237-0.962-36.319-2.379c-12.685-1.487-25.309-3.231-37.888-5.439c-4.359-0.765-8.618-2.348-13.144-2.112
	c-12.056-3.087-24.189-5.845-36.14-9.373c-75.192-22.201-141.339-60.206-198.357-113.928
	c-59.492-56.053-102.37-122.925-128.767-200.296c-8.156-23.905-14.336-48.332-18.517-73.267c-2.59-15.451-4.453-30.963-5.797-46.576
	c-1.841-21.393-1.716-42.797-1.077-64.199c0.66-22.067,3.109-43.993,6.855-65.758c0.645-3.746,1.029-7.64,3.554-10.795
	c1.146-5.304,2.292-10.608,3.433-15.901c0.402-0.819,0.971-1.607,1.193-2.484c6.592-26.061,15.374-51.363,26.169-75.976
	c55.16-125.75,164.789-229.887,309.017-273.314c19.287-5.807,38.893-10.357,58.75-13.666c12.285-2.047,24.624-3.876,37.088-4.672
	c3.798-0.243,7.559-1.075,11.346-1.638c1.959-0.071,3.908-0.141,5.857-0.212c3.149,0.054,6.302,0.233,9.446,0.14
	c14.857-0.446,29.708-0.262,44.556,0.332c2.525,0.101,5.072,0.115,7.562,0.487C837.394,330.737,838.417,331.68,839.494,332.272z"/>
<path fill-rule="evenodd" clip-rule="evenodd" fill="#8A8B85" d="M1167.325,1151.607c0.406-1.19,0.824-2.377,1.217-3.572
	c0.376-1.146-0.057-2.075-0.979-2.189c-0.632-0.077-1.268-0.303-1.887-0.259c-7.54,0.529-14.523-1.948-21.433-4.313
	c-6.965-2.383-13.551-5.735-19.433-10.266c-3.289-2.533-6.454-5.228-9.679-7.844c-0.974-0.79-2.633-0.813-3.52,0.021
	c-5.126,4.817-10.209,9.681-15.352,14.48c-32.524,30.348-68.963,54.935-109.148,73.967c-31.039,14.699-63.376,25.494-97.041,32.415
	c-14.42,2.965-28.929,5.325-43.541,6.773c-20.69,2.051-41.468,3.057-62.272,1.95c-42.68-2.27-84.35-9.795-124.737-24.048
	c-44.71-15.778-85.764-38.172-123.088-67.427c-14.874-11.659-29.059-24.086-42.25-37.609c-38.146-39.106-68.136-83.663-89.6-133.969
	c-11.333-26.563-19.685-54.015-25.686-82.211c-1.596-7.495-2.728-15.09-4.032-22.646c-0.273-1.582-0.295-3.184,0.702-4.6
	c1.339,0.485,1.942,1.543,2.202,2.855c0.806,4.072,1.54,8.16,2.416,12.218c7.875,36.44,20.297,71.281,37.347,104.418
	c15.417,29.963,33.991,57.845,55.898,83.511c12.695,14.873,26.326,28.82,40.837,41.869c20.735,18.646,43.093,35.174,67.109,49.392
	c29,17.168,59.486,31.04,91.695,41.041c18.019,5.595,36.315,9.984,54.909,13.284c12.291,2.181,24.675,3.476,37.042,4.921
	c6.969,0.814,14.052,0.627,21.08,0.979c17.27,0.865,34.532,0.231,51.749-0.875c8.573-0.551,17.147-1.736,25.699-2.928
	c17.122-2.385,33.987-5.894,50.695-10.221c22.952-5.945,45.144-14.092,66.717-23.868c30.414-13.782,58.87-30.89,85.281-51.329
	c13.665-10.575,26.767-21.822,38.999-34.055c2.258-2.257,4.589-4.443,6.947-6.594c0.817-0.744,1.873-0.489,2.629,0.127
	c1.732,1.409,3.338,2.975,5.044,4.419c9.428,7.986,20.078,13.688,32.146,16.402c4.647,1.046,9.495,1.214,14.257,1.73
	c1.819,0.198,2.815,1.073,3.174,2.905c0.195,0.995,1.343,1.247,2,0.583c1.347-1.362,2.743-2.684,3.992-4.132
	c21.362-24.771,40.397-51.217,56.475-79.71c16.696-29.591,30.588-60.455,40.893-92.877c6.685-21.033,12.128-42.37,15.861-64.139
	c1.567-9.134,3.239-18.242,3.967-27.493c0.151-1.934,0.549-3.796,1.619-5.466c0.296,7.668-0.018,15.288-1.381,22.885
	c-0.956,5.331-1.49,10.743-2.226,16.113c-2.78,20.293-7.625,40.113-13.01,59.821c-4.803,17.58-10.866,34.737-17.84,51.571
	c-7.22,17.426-15.161,34.496-24.423,50.957c-7.369,13.098-14.986,26.028-23.465,38.438c-12.269,17.958-25.403,35.247-40.066,51.338
	C1170.577,1149.736,1169.498,1151.458,1167.325,1151.607z"/>
<path fill-rule="evenodd" clip-rule="evenodd" fill="#CBFE66" d="M768.824,329.819c-3.778,0.563-7.539,1.395-11.337,1.638
	c-12.464,0.796-24.803,2.625-37.088,4.672c-19.857,3.309-39.463,7.859-58.75,13.666
	c-144.228,43.427-253.856,147.564-309.017,273.314c-10.796,24.613-19.577,49.915-26.169,75.976
	c-0.222,0.876-0.791,1.665-1.193,2.484c-2.302,0.355-4.614,0.751-6.561-1.083c1.903-0.432,3.76-0.914,4.446-3.104
	c0.764-2.437,1.697-4.829,2.309-7.302c5.541-22.398,13.545-43.968,22.621-65.104c7.315-17.036,15.744-33.571,24.94-49.708
	c4.753-8.341,9.635-16.61,14.931-24.59c6.89-10.381,14.213-20.488,21.638-30.5c17.783-23.981,38.343-45.469,60.22-65.684
	c9.146-8.451,18.809-16.35,28.637-24.045c13.363-10.463,27.211-20.209,41.557-29.242c19.229-12.106,39.23-22.758,59.984-32.079
	c14.018-6.295,28.263-11.938,42.773-16.902c14.499-4.961,29.161-9.469,44.117-12.871c14.31-3.255,28.663-6.353,43.263-8.093
	c7.113-2.066,14.599-1.474,21.801-3.088c3.387-0.759,6.987-0.857,10.494-0.118c0.708,0.421,1.369,1.042,2.132,1.22
	C765.957,329.596,767.403,329.652,768.824,329.819z"/>
<path fill-rule="evenodd" clip-rule="evenodd" fill="#CBFE66" d="M937.907,1293.644c1.125-0.578,2.191-1.354,3.383-1.706
	c80.122-23.661,149.513-65.35,208.722-124.162c1.587-1.577,3.087-3.256,4.781-4.707c0.925-0.791,2.175-1.201,3.28-1.784
	c-0.08,0.941,0.036,1.963-0.3,2.804c-0.341,0.852-1.056,1.601-1.734,2.263c-8.473,8.259-16.697,16.799-25.529,24.655
	c-10.259,9.126-20.945,17.781-31.992,25.971c-13.102,9.711-26.519,18.954-40.486,27.371c-12.871,7.756-26.176,14.713-39.634,21.405
	c-24.097,11.982-49.223,21.282-74.874,29.253c-1.475,0.458-3.126,0.347-4.694,0.5
	C938.521,1294.885,938.214,1294.265,937.907,1293.644z"/>
<path fill-rule="evenodd" clip-rule="evenodd" fill="#CBFE66" d="M700.083,1301.661c4.526-0.235,8.785,1.348,13.144,2.112
	c12.58,2.208,25.204,3.952,37.888,5.439c12.082,1.417,24.206,1.713,36.319,2.379c9.896,0.544,19.794,0.529,29.693,0.031
	c6.7-0.337,13.42-0.4,20.102-0.946c9.54-0.779,19.068-1.77,28.576-2.882c17.449-2.04,34.656-5.464,51.77-9.383
	c0.612-0.14,1.261-0.117,1.895-0.17c1.373,0.417,2.745,0.834,4.117,1.252c-0.771,0.548-1.472,1.41-2.32,1.597
	c-9.643,2.112-19.262,4.382-28.979,6.093c-11.912,2.097-23.904,3.745-35.876,5.49c-2.518,0.367-5.096,0.319-7.646,0.45
	c-3.821,0.197-7.631,0.266-11.417,1.105c-2.463,0.547-5.077,0.557-7.624,0.563c-17.88,0.046-35.761,0.084-53.64-0.015
	c-3.486-0.02-6.97-0.643-10.453-1.002c-0.952-0.099-1.898-0.368-2.845-0.362c-8.326,0.052-16.534-1.204-24.74-2.328
	c-9.147-1.253-18.299-2.574-27.354-4.353c-4.077-0.801-8.167-1.372-12.258-2.018
	C698.983,1303.697,699.533,1302.679,700.083,1301.661z"/>
<path fill-rule="evenodd" clip-rule="evenodd" fill="#CBFE66" d="M839.494,332.272c-1.076-0.593-2.1-1.536-3.239-1.707
	c-2.489-0.373-5.036-0.386-7.562-0.487c-14.849-0.594-29.699-0.778-44.556-0.332c-3.145,0.094-6.297-0.086-9.452-0.14
	c-0.308-0.652-0.609-1.305-0.91-1.957c0.944-0.903,2.063-1.45,3.372-1.505c2.528-0.106,5.058-0.235,7.587-0.244
	c11.072-0.04,22.145-0.104,33.216-0.028c5.682,0.038,11.342,0.159,17.006,1.155c4.325,0.761,8.828,0.513,13.252,0.714
	c1.598,0.073,3.143,0.314,4.396,1.438c-2.518,0.838-5.07,0.302-7.594,0.117c-2.174-0.159-3.619,0.727-4.694,2.505
	C840.171,332.038,839.774,332.12,839.494,332.272z"/>
<path fill-rule="evenodd" clip-rule="evenodd" fill="#FEFEFE" d="M923.586,1299.494c-1.372-0.418-2.744-0.835-4.117-1.252
	c6.142-1.532,12.286-3.063,18.434-4.597c0.312,0.62,0.618,1.24,0.926,1.861C933.748,1296.835,928.667,1298.165,923.586,1299.494z"/>
<path fill-rule="evenodd" clip-rule="evenodd" fill="#FEFEFE" d="M773.775,327.65c0.301,0.652,0.603,1.305,0.91,1.957
	c-1.944,0.071-3.893,0.141-5.852,0.212c-1.43-0.167-2.876-0.223-4.261-0.544c-0.764-0.177-1.425-0.799-2.132-1.22
	C766.217,327.92,769.996,327.785,773.775,327.65z"/>
<path fill-rule="evenodd" clip-rule="evenodd" fill="#8A8B85" d="M1163.547,1155.487c0.018-1.301,0.648-2.005,1.977-2.03
	C1165.545,1154.795,1164.904,1155.49,1163.547,1155.487z"/>
<path fill-rule="evenodd" clip-rule="evenodd" fill="#8A8B85" d="M1161.647,1157.424c0.065-1.253,0.704-1.945,1.976-2.019
	C1163.671,1156.771,1163.049,1157.479,1161.647,1157.424z"/>
<path fill-rule="evenodd" clip-rule="evenodd" fill="#8A8B85" d="M1159.042,1159.636c0.589-1.117,1.281-2.114,2.675-2.294
	C1161.199,1159.417,1161.199,1159.417,1159.042,1159.636z"/>
<path fill-rule="evenodd" clip-rule="evenodd" fill="#8A8B85" d="M1165.437,1153.547c-0.004-1.322,0.634-2.021,1.978-2.037
	C1167.431,1152.844,1166.788,1153.539,1165.437,1153.547z"/>
<path fill-rule="evenodd" clip-rule="evenodd" fill="#020201" d="M1063.797,700.475c1.718,0.274,2.646,1.658,3.78,2.731
	c9.06,8.573,18.104,17.162,27.153,25.746c0.083,1.125,0.68,1.72,1.814,1.76c0,0,0.171,0.159,0.17,0.158
	c0.098,1.083,0.678,1.662,1.777,1.693c0,0,0.193,0.187,0.193,0.186c0.302,0.556,0.483,1.243,0.925,1.65
	c6.539,6.039,13.106,12.049,19.695,18.035c0.443,0.403,1.109,0.755,1.678,0.766c0.521,0.01,1.455-0.41,1.511-0.753
	c0.25-1.56,0.332-3.158,0.335-4.743c0.023-11.777,0.012-23.555,0.016-35.333c0.001-2.546-0.015-5.094,0.046-7.638
	c0.094-3.93,1.05-4.786,5.288-4.784c1.59,0.001,3.18,0.113,4.77,0.135c5.724,0.079,11.448,0.14,17.172,0.208
	c0.403,0.434,0.674,0.939,0.811,1.516c-0.19,0.923-0.548,1.848-0.545,2.771c0.022,6.362,0.05,12.727,0.238,19.085
	c0.052,1.763-1.083,4.392,0.799,5.136c2.362,0.934,2.502-2.185,3.65-3.475c1.05-1.179,1.771-2.642,2.745-3.896
	c12.927-16.647,29.685-25.489,51.017-25.032c2.844,0.061,5.696,0.773,8.539-0.023c17.542,2.789,31.284,11.833,42.166,25.598
	c2.096,2.651,2.089,3.556-0.369,5.387c-5.863,4.369-11.753,8.702-17.649,13.026c-1.275,0.936-2.38,0.817-3.403-0.247
	c-1.759-1.831-3.51-3.668-5.264-5.503c-0.095-0.304-0.094-0.716-0.299-0.899c-7.736-6.914-16.943-9.862-27.173-9.845
	c-1.175,0.002-2.349,0.817-3.522,1.256c-14.137,2.834-23.47,11.308-26.611,25.186c-3.308,14.611-0.112,27.715,12.89,37.019
	c0.353,0.502,0.594,1.229,1.077,1.468c2.264,1.122,4.517,2.358,6.914,3.103c11.114,3.453,21.89,2.797,32.101-3.15
	c1.085-0.632,2.084-1.443,3.024-2.282c0.442-0.396,0.869-1.041,0.903-1.597c0.03-0.511-0.453-1.502-0.751-1.518
	c-7.592-0.396-15.188-0.713-22.787-0.975c-0.92-0.032-1.852,0.326-2.778,0.503c-2.605,0.103-3.825-1.263-3.982-3.756
	c0.893-3.746,0.255-7.547,0.384-11.32c0.108-3.156,0.012-6.319,0.09-9.477c0.067-2.737,1.2-3.737,4.239-3.803
	c2.526-0.055,5.055-0.037,7.583-0.032c11.059,0.019,22.117,0.056,33.176,0.057c2.196,0,4.428,0.256,6.555-0.585
	c4.767,0.206,9.534,0.412,14.301,0.619c1.896,0.083,3.057,1.114,3.148,2.845c1.02,19.235-5.008,35.742-19.199,48.983
	c-9.394,8.765-20.621,13.654-33.361,15.045c-10.219,1.115-20.357,0.793-30.304-2.115c-1.614-1.471-3.39-2.44-5.675-1.818
	c0,0-0.16-0.048-0.159-0.048c-0.702-0.619-1.307-1.464-2.124-1.823c-11.492-5.052-19.838-13.53-26.379-24.009
	c-0.495-0.793-1.09-1.531-1.695-2.245c-0.164-0.192-0.54-0.284-0.816-0.281c-0.296,0.003-0.846,0.172-0.848,0.272
	c-0.06,5.69-0.761,11.394,0.248,17.067c-0.559,3.715,0.44,7.542-0.805,11.207c-0.646-0.084-1.292-0.169-1.938-0.254
	c-3.3-3.139-6.6-6.277-9.899-9.416c-0.766-0.973-1.419-2.067-2.317-2.896c-3.494-3.225-7.125-6.302-10.596-9.551
	c-5.79-5.42-11.468-10.96-17.246-16.393c-4.622-4.345-9.309-8.622-14.018-12.872c-0.379-0.342-1.226-0.45-1.731-0.287
	c-0.49,0.159-1.148,0.792-1.173,1.247c-0.215,4.08-1.13,8.17,0.001,12.25c-0.029,11.164-0.046,22.329-0.102,33.493
	c-0.008,1.587-0.106,3.188-0.357,4.75c-0.08,0.498-0.719,1.032-1.232,1.299c-0.524,0.273-1.209,0.33-1.823,0.326
	c-7.97-0.051-15.939-0.129-23.909-0.2c-0.9-4.732-0.953-9.515-0.948-14.312c0.024-25.548,0.052-51.096-0.011-76.643
	C1062.895,718.963,1063.088,709.713,1063.797,700.475z"/>
<path fill-rule="evenodd" clip-rule="evenodd" fill="#020201" d="M802.585,794.5c-5.101-0.068-10.201-0.138-15.301-0.202
	c-2.156-0.027-3.397,1.015-4.294,3.019c-2.991,6.686-6.169,13.287-9.264,19.926c-0.585,1.256-1.533,1.969-2.913,2.065
	c-0.953,0.067-1.91,0.117-2.865,0.117c-15.31,0.006-30.619,0.002-45.929-0.001c-0.319,0-0.64-0.042-0.956-0.018
	c-2.503,0.201-3.264-1.392-3.574-3.453c0.151-0.62,0.435-1.239,0.435-1.858c0.001-27.125-0.019-54.25-0.057-81.375
	c-0.001-0.947-0.005-1.98-0.371-2.815c-0.341-0.781-1.05-1.675-1.801-1.94c-1.164-0.41-2.499-0.399-3.765-0.441
	c-3.825-0.126-7.654-0.134-11.476-0.303c-2.305-0.103-3.718-1.368-3.918-3.354c-0.706-6.999-0.586-14.006-0.135-21.013
	c0.02-0.312,0.075-0.679,0.253-0.913c0.372-0.488,0.764-1.145,1.28-1.302c1.193-0.365,2.463-0.656,3.703-0.661
	c22.014-0.096,44.028-0.29,66.029,0.737c0.106,5.656,0.212,11.312,0.319,16.968c-0.938,2.151-0.387,4.418-0.515,6.632
	c-0.109,1.876-0.999,2.684-3.125,2.715c-2.238,0.033-4.477-0.042-6.714,0.013c-3.5,0.087-7.003,0.169-10.495,0.414
	c-1.137,0.079-1.203,1.233-1.239,2.184c0.012,11.824,0.023,23.648,0.035,35.473c-0.214,0.602-0.618,1.204-0.615,1.804
	c0.06,12.777,0.164,25.554,0.278,38.331c0.002,0.255,0.169,0.582,0.367,0.742c0.234,0.19,0.728,0.419,0.862,0.315
	c0.712-0.557,1.589-1.092,1.972-1.854c4.011-7.99,7.907-16.039,11.896-24.041c11.535-23.146,23.103-46.275,34.629-69.426
	c0.267-0.536,0.192-1.243,0.277-1.869c1.368-2.511,2.727-5.026,4.11-7.529c0.4-0.725,1.968-0.654,2.359,0.102
	c2.789,5.385,5.569,10.774,8.35,16.164c8.05,15.605,16.098,31.212,24.146,46.818c0.179,0.929,0.146,1.969,0.567,2.771
	c5.94,11.322,11.935,22.616,17.947,33.899c0.443,0.831,1.141,1.526,1.712,2.29c0.443,0.593,0.845,0.567,0.936-0.126
	c0.241-1.83,0.56-3.67,0.562-5.506c0.035-28.79,0.021-57.58,0.033-86.37c0.001-2.876,0.07-5.753,0.162-8.628
	c0.053-1.64,1.398-2.993,3.087-2.944c8.303,0.241,16.604,0.551,24.904,0.836c0.063,4.451,0.175,8.902,0.179,13.353
	c0.02,20.359,0.001,40.718,0.018,61.077c0.003,3.179,0.116,6.357,0.179,9.536c-0.202,0.581-0.606,1.174-0.574,1.741
	c0.184,3.241,1.095,4.254,3.751,4.337c1.267,0.04,2.535,0.037,3.803,0.039c8.551,0.017,17.103,0.005,25.653,0.059
	c2.922,0.019,4.021,1.118,4.106,3.945c0.067,2.217-0.008,4.438,0.076,6.654c0.179,4.736-0.502,9.493,0.355,14.21
	c-0.31,2.058-1.038,3.526-3.568,3.461c-4.147-0.107-8.3,0.013-12.45,0.02c-23.626,0.037-47.252,0.02-70.877,0.164
	c-3.011,0.019-4.846-1.069-6.006-3.673c-2.485-6.818-6.146-13.075-9.357-19.545c-0.604-1.217-1.688-1.881-3.029-1.91
	C812.017,794.255,807.294,793.734,802.585,794.5z"/>
<path fill-rule="evenodd" clip-rule="evenodd" fill="#020201" d="M540.701,800.83c-0.089,5.109-0.162,10.219-0.276,15.328
	c-0.044,1.979-1.046,3.184-2.712,3.188c-7.666,0.02-15.332,0.038-22.996-0.049c-2.087-0.024-2.216-1.876-2.559-3.399
	c0.077-0.309,0.22-0.617,0.22-0.926c0.002-12.708-0.006-25.417-0.024-38.126c0-0.254-0.151-0.506-0.21-0.764
	c-0.208-0.906-0.554-0.91-0.949,0.035c-0.978,2.344-1.871,4.726-2.893,7.052c-3.366,7.658-7.813,14.544-14.296,19.99
	c-0.933,0.784-1.61,1.874-2.406,2.822c-2.333,1.648-4.592,3.414-7.012,4.92c-7.974,4.966-16.729,7.97-26.061,8.268
	c-13.337,0.427-26.696,0.168-40.046,0.147c-1.955-0.003-2.503-1.602-2.934-3.168c0.933-2.129,0.574-4.382,0.575-6.586
	c0.018-29.589,0.009-59.178,0.009-88.767c0-5.09-0.017-10.181,0.036-15.271c0.013-1.262,0.158-2.549,0.466-3.768
	c0.133-0.527,0.766-1.175,1.289-1.308c1.216-0.309,2.506-0.48,3.762-0.46c12.404,0.189,24.806,0.438,37.209,0.643
	c1.259,0.021,2.52-0.144,3.78-0.222c9.792,1.945,18.953,5.368,26.944,11.524c0.462,1.693,1.957,2.473,3.176,3.438
	c7.467,5.915,12.561,13.514,16.016,22.3c0.701,1.783,1.405,3.564,2.138,5.333c0.094,0.229,0.35,0.496,0.575,0.545
	c0.755,0.166,0.86-0.256,0.856-1.145c-0.014-3.512,0.135-7.025,0.15-10.538c0.04-9.266,0.014-18.531,0.074-27.797
	c0.019-2.929,1.164-4.034,4.018-4.068c1.914-0.023,3.83,0.086,5.745,0.103c5.744,0.05,11.488,0.084,17.233,0.124
	c1.566,2.258,0.586,4.858,0.977,7.274c-0.235,0.912-0.667,1.823-0.669,2.735c-0.006,2.862,0.233,5.725,0.229,8.587
	c-0.037,26.106-0.116,52.211-0.134,78.317C540,798.371,540.457,799.601,540.701,800.83z"/>
<path fill-rule="evenodd" clip-rule="evenodd" fill="#020201" d="M1059.906,819.388c-7.573,0.01-15.146,0.045-22.72,0.017
	c-2.766-0.01-3.015-0.326-4.033-3.995c0.898-2.767,0.322-5.609,0.396-8.414c0.074-2.822-0.037-5.65-0.099-8.475
	c-0.034-1.507-0.606-2.458-1.16-2.068c-0.452,0.319-1.016,0.64-1.237,1.101c-3.519,7.337-8.713,12.978-16.233,16.345
	c-0.505,0.226-0.811,0.895-1.209,1.358c-2.422,0.773-4.804,1.713-7.271,2.291c-12.35,2.894-24.03,0.933-35.106-5.08
	c-3.075-1.67-6.113-3.413-9.221-5.022c-1.116-0.578-2.374-0.898-3.588-1.269c-1.394-0.427-3.508,0.846-3.634,2.203
	c-0.204,2.215-0.331,4.438-0.503,6.657c-0.073,0.951-0.041,1.942-0.32,2.833c-0.163,0.52-0.778,1.018-1.312,1.267
	c-0.548,0.256-1.242,0.264-1.873,0.266c-7.014,0.019-14.027,0.041-21.04,0.006c-2.861-0.014-3.083-0.29-4.135-3.974
	c0.143-2.217,0.408-4.434,0.409-6.651c0.027-32.614,0.013-65.229,0.031-97.843c0.002-2.873,0.06-5.755,0.315-8.613
	c0.074-0.823,0.709-1.825,1.843-1.952c1.575-0.177,3.159-0.448,4.734-0.415c7.028,0.149,14.056,0.393,21.084,0.602l0.037,0.053
	c0.037,2.872,0.114,5.743,0.104,8.615c-0.06,15.978-0.148,31.956-0.195,47.933c-0.003,0.939,0.271,1.879,0.415,2.818
	c0.02,3.764,0.039,7.528,0.058,11.292c-0.802,2.187-0.284,4.403-0.107,6.602c0.145,1.784,1.269,2.457,3.32,2.244
	c3.473-0.359,6.948-0.727,10.432-0.958c3.179-0.211,6.363-0.271,9.229-1.929c0.633-0.046,1.265-0.125,1.897-0.134
	c3.194-0.041,3.194-0.034,4.559,3.472c0.104,0.615,0.057,1.314,0.34,1.831c1.563,2.854,3.839,5.07,6.515,6.875
	c3.195,2.153,8.652,1.97,11.728-0.427c0.734-0.573,1.397-1.317,1.887-2.111c3.354-5.448,0.854-10.561-3.677-12.96
	c-1.955-1.036-4.154-1.617-6.254-2.371c-3.601-1.292-7.235-2.493-10.81-3.853c-4.834-1.84-9.058-4.693-12.806-8.227
	c-5.507-5.193-9.321-11.464-10.308-18.992c-3.345-25.515,17.483-42.331,36.232-40.279c2.512,0.275,5.07,0.132,7.607,0.183
	c2.492,0.768,4.984,1.536,7.477,2.304c0.683,0.61,1.268,1.454,2.065,1.795c7.63,3.258,12.508,9.333,16.723,16.112
	c0.668,1.074,0.333,2.635-0.788,3.281c-4.088,2.357-8.206,4.662-12.271,7.058c-0.754,0.445-1.313,1.224-1.961,1.848
	c-0.306,0.09-0.621,0.154-0.914,0.274c-2.035,0.827-4.017,2.173-6.108,2.369c-2.56,0.24-3.039-2.903-4.784-4.177
	c-0.513-0.374-0.946-0.855-1.463-1.22c-3.841-2.705-8.806-2.12-12.229,1.103c-0.437,0.411-0.755,1.028-0.944,1.609
	c-1.09,3.321,0.149,6.604,3.154,8.091c1.699,0.841,3.502,1.49,5.29,2.134c5.375,1.939,10.766,3.834,16.15,5.746
	c0.165,0.274,0.262,0.667,0.504,0.805c7.417,4.211,13.034,10.15,16.978,17.684c0.385,0.736,0.828,1.114,1.496,0.604
	c0.413-0.315,0.782-0.96,0.804-1.473c0.117-2.871,0.158-5.747,0.161-8.621c0.013-15.012-0.025-30.025,0.014-45.037
	c0.038-14.298-1.37-12.537,12.964-12.563c1.913-0.003,3.825,0.31,5.738,0.329c3.185,0.031,6.37-0.058,9.556-0.096l0.106,0.05
	c0.024,2.87,0.006,5.742,0.086,8.61c0.098,3.509,0.397,7.015,0.401,10.522c0.034,28.747,0.028,57.494,0.007,86.241
	c-0.003,2.87-0.114,5.745-0.315,8.607C1061.987,816.164,1061.375,817.983,1059.906,819.388z"/>
<path fill-rule="evenodd" clip-rule="evenodd" fill="#020201" d="M695.713,729.587c-0.029,26.847-0.051,53.693-0.102,80.54
	c-0.004,2.549-0.13,5.103-0.349,7.642c-0.041,0.479-0.719,1.038-1.235,1.305c-0.525,0.271-1.214,0.311-1.831,0.313
	c-7.031,0.022-14.063-0.031-21.093,0.047c-2.449,0.027-3.36-1.298-3.667-3.418c0.149-1.248,0.424-2.496,0.428-3.744
	c0.028-9.516,0.015-19.031-0.01-28.546c-0.007-2.392-0.101-4.784-0.158-7.326c-0.572,0.283-0.962,0.345-1.038,0.534
	c-0.946,2.347-1.811,4.727-2.766,7.069c-3.399,8.332-8.018,15.814-15.027,21.656c-0.938,0.781-1.61,1.88-2.406,2.832
	c-7.705,6.396-16.55,10.617-26.331,12.307c-11.281,1.95-22.655,2.11-33.824-1.199c-2.724-0.807-5.44-1.643-8.159-2.465
	c-0.528-1.326-1.803-1.63-2.916-2.216c-15.803-8.324-25.908-21.217-30.693-38.368c-1.73-6.204-2.122-12.575-1.948-18.938
	c0.13-4.756,0.433-9.613,1.523-14.22c6.574-27.782,33.303-48.787,61.772-46.968c2.837,0.181,5.699,0.802,8.551,0.04
	c12.381,1.974,23.11,7.402,32.539,15.552c0.351,1.674,1.864,2.38,2.887,3.502c2.294,2.518,4.568,5.056,6.785,7.641
	c0.783,0.914,0.57,2.642-0.384,3.366c-2.22,1.683-4.499,3.287-6.749,4.93c-1.485,1.085-3.317,1.776-4.136,3.623
	c-2.295,1.688-4.581,3.389-6.89,5.058c-1.57,1.135-2.915,1.019-4.171-0.263c-2.212-2.254-4.436-4.497-6.654-6.745
	c-0.151-0.28-0.236-0.64-0.463-0.83c-6.884-5.761-15.031-8.015-23.798-8.499c-1.613-0.089-3.174,0.156-4.458,1.287
	c-15.373,3.184-25.415,13.37-27.993,28.379c-1.929,11.231,2.292,28.782,16.478,35.396c0.392,0.481,0.683,1.178,1.189,1.413
	c9.411,4.371,19.117,4.846,28.986,1.872c4.01-1.208,7.701-3.148,10.71-6.149c0.367-0.366,0.429-1.116,0.48-1.702
	c0.072-0.823-0.401-1.127-1.207-1.147c-6.391-0.161-12.781-0.37-19.171-0.513c-0.61-0.014-1.229,0.32-1.843,0.492
	c-1.533-0.1-3.068-0.295-4.601-0.279c-2.42,0.024-3.098-1.48-3.319-3.483c0.835-4.748,0.308-9.533,0.353-14.299
	c0.107-11.589-0.876-10.553,11.064-10.546c16.263,0.009,32.526,0.079,48.789,0.081c2.217,0,4.435-0.213,6.65-0.368
	c1.109-0.078,1.838-1.006,1.98-1.819c0.326-1.868,0.357-3.802,0.362-5.709c0.027-12.118,0.002-24.235,0.025-36.353
	c0.005-2.547,0.119-5.094,0.222-7.64c0.049-1.209,1.234-2.474,2.375-2.516c3.182-0.118,6.365-0.239,9.548-0.266
	c3.826-0.031,7.654-0.021,11.478,0.075c3.304,0.083,4.368,1.199,4.4,4.797c0.063,7.01,0.38,14.026-0.408,21.026
	C695.35,727.057,695.628,728.333,695.713,729.587z"/>
<path fill-rule="evenodd" clip-rule="evenodd" fill="#020201" d="M810.286,919.694c4.575-1.178,8.839,0.134,13.061,1.678
	c1.636,0.599,2.978,0.335,4.377-0.75c1.549-1.199,3.492-1.551,5.421-1.497c2.226,0.063,4.449,0.29,6.668,0.51
	c2.07,0.205,2.938,1.033,2.974,2.888c0.079,4.143,0.048,8.289,0.167,12.431c0.036,1.241,0.328,2.502,0.699,3.693
	c0.146,0.472,0.81,1.08,1.267,1.106c1.889,0.106,3.815,0.198,5.675-0.07c1.267-0.183,2.272-1.235,2.554-2.56
	c0.327-1.541,0.612-3.137,0.571-4.7c-0.099-3.817-0.434-7.629-0.56-11.447c-0.013-0.401,0.665-1.035,1.149-1.21
	c3.762-1.358,7.572-0.346,11.366-0.117c0.695,0.537,1.39,1.075,2.085,1.613c0.063,5.707,0.127,11.414,0.19,17.121
	c-0.495,4.798-0.466,18.25,0.082,22.812c0.02,0.163,0.365,0.373,0.58,0.402c0.294,0.041,0.82,0.02,0.884-0.129
	c1.496-3.507,3.004-7.011,4.385-10.563c3.795-9.766,7.531-19.554,11.292-29.332c1.059,0,1.558,0.696,2.008,1.531
	c2.929,5.426,5.879,10.842,8.821,16.26c0.094,3.103,2.392,5.075,3.857,7.468c0.537,0.877,1.963,0.997,2.36,0.258
	c4.058-7.537,8.116-15.073,12.147-22.625c0.121-0.228-0.065-0.619-0.109-0.935c0.455-0.445,0.896-0.906,1.367-1.331
	c1.064-0.958,1.771-0.996,2.142-0.086c1.323,3.252,2.588,6.527,3.916,9.776c2.655,6.499,4.477,13.321,7.657,19.618
	c0.36,0.713,0.702,0.861,1.451,0.924c1.156,0.098,1.786-0.575,2.391-1.253c0.399-0.447,0.674-1.113,0.755-1.715
	c0.214-1.577,0.417-3.175,0.4-4.761c-0.072-6.717-0.23-13.432-0.344-20.147c-0.016-0.948-0.082-1.926,0.12-2.836
	c0.121-0.546,0.625-1.254,1.117-1.424c1.495-0.514,3.065-1.113,4.609-1.123c7.995-0.048,15.991,0.1,23.987,0.133
	c3.271,0.014,6.371,0.829,9.278,2.171c9.492,4.382,13.727,14.738,9.406,25.014c-0.604,1.438-1.678,2.718-2.701,3.93
	c-1.229,1.455-2.639,2.758-4.098,4.258c1.67,4.219,4.384,7.774,6.564,11.623c1.097,1.937,2.115,3.918,3.135,5.896
	c0.364,0.706-0.529,2.033-1.344,2.046c-2.235,0.034-4.482-0.053-6.704,0.146c-3.51,0.313-6.189-0.972-8.282-3.727
	c-0.376-0.495-0.92-0.867-1.404-1.273c-0.907-0.76-2.732-0.563-3.373,0.362c-0.181,0.262-0.399,0.537-0.463,0.836
	c-0.662,3.11-2.785,3.827-5.66,3.8c-8.951-0.084-17.905-0.009-26.857-0.043c-2.232-0.009-4.465-0.193-6.696-0.298
	c-1.697-2.297-3.538-4.505-5.034-6.926c-0.813-1.315-0.948-3.03-1.559-4.495c-0.481-1.157-1.102-2.301-1.871-3.287
	c-1.803-2.314-4.74-2.156-6.253,0.298c-1.509,2.447-2.911,4.96-4.403,7.419c-4.841,7.975-3.538,7.617-9.285-0.075
	c-1.904-2.548-3.376-5.416-5.076-8.119c-0.509-0.809-1.098-1.57-1.692-2.32c-0.862-1.088-3.515-0.827-4.158,0.43
	c-0.723,1.413-1.466,2.828-2.03,4.308c-1.366,3.582-2.608,7.211-3.955,10.801c-0.482,1.287-1.495,2.126-2.883,2.142
	c-6.076,0.067-12.152,0.084-18.229,0.068c-1.87-0.005-3.14-0.87-3.612-2.526c-0.605-2.122-1.617-4.164-1.255-6.505
	c0.194-1.257,0.162-2.552,0.184-3.831c0.116-6.785-1.838-8.063-8.915-7.399c-0.479,0.045-1.167,0.731-1.285,1.23
	c-0.286,1.22-0.377,2.503-0.399,3.763c-0.071,4.156-0.053,8.314-0.121,12.471c-0.028,1.683-1.294,2.801-3.149,2.823
	c-2.237,0.027-4.478,0.029-6.713-0.054c-1.783-0.067-2.84-1.188-3.617-2.708c-0.228-0.444-0.864-1.085-1.17-1.015
	c-1.234,0.285-2.448,0.736-3.605,1.266c-4.529,2.072-9.214,2.375-14.072,1.53c-2.593-0.451-5.405-2.408-7.679,0.739
	c-3.508,0.035-7.02,0.159-10.522,0.037c-0.825-0.028-1.868-0.703-2.385-1.398c-1.709-2.297-3.293-4.696-4.782-7.145
	c-0.732-1.203-1.707-1.764-2.998-2.064c-3.476-0.81-7-0.646-10.511-0.51c-1.271,0.05-2.466,0.627-3.138,1.855
	c-0.306,0.56-0.519,1.169-0.795,1.746c-4.374,9.127-2.867,7.611-11.962,7.75c-5.438,0.084-10.877-0.025-16.316,0.011
	c-2.055,0.013-3.741-0.726-5.112-2.183c-2.398-2.549-4.723-5.166-7.159-7.678c-0.307-0.316-1.177-0.363-1.64-0.176
	c-0.485,0.195-0.836,0.798-1.162,1.279c-0.165,0.244-0.2,0.613-0.201,0.927c-0.028,8.928-0.573,7.76-8.962,7.814
	c-0.635,0.005-1.35,0.052-1.889-0.208c-0.818-0.394-1.876-0.882-2.192-1.609c-0.875-2.012-1.855-4.021-1.761-6.358
	c0.603-15.027,0.872-30.055-0.144-45.08c-0.028-0.413,0.621-1.119,1.094-1.28c4.112-1.396,8.229-0.46,12.32,0.198
	c0.457,0.073,0.87,0.885,1.155,1.432c0.291,0.559,0.35,1.231,0.594,1.82c0.614,1.479,2.589,2.118,3.867,1.19
	c1.285-0.935,2.536-1.932,3.701-3.011c1.736-1.608,3.741-2.467,6.09-2.325c3.498,0.211,6.992,0.504,10.484,0.809
	c0.714,0.063,1.021,0.686,0.66,1.428c-0.691,1.421-1.387,2.859-2.27,4.162c-4.484,6.614-9.038,13.181-13.544,19.778
	c-1.113,1.629-1.114,2.626,0.135,4.254c3.695,4.815,7.449,9.585,11.18,14.373c0.769,2.913,3.009,4.704,5.124,6.553
	c0.339,0.296,1.186,0.087,1.775-0.018c0.25-0.044,0.517-0.382,0.647-0.649c7.382-15.087,14.754-30.179,22.1-45.283
	c0.11-0.228-0.103-0.612-0.165-0.924c0.428-0.452,0.843-0.918,1.288-1.353c1.11-1.087,1.733-1.221,2.208-0.481
	c0.673,1.048,1.405,2.068,1.974,3.172c4.587,8.901,9.143,17.818,13.708,26.73c0.027,1.652,0.931,2.938,2.029,3.966
	c1.213,1.135,2.837,0.709,4.359,0.65c3.354-0.127,6.713-0.124,10.069-0.174c0.23,0.47,0.475,0.932,0.733,1.387
	c0.683,2.942,2.847,3.85,5.516,3.79c2.131-0.049,4.096-2.355,3.82-4.453c-0.113-0.861-0.562-1.893-1.208-2.411
	c-0.615-0.494-1.687-0.42-2.558-0.596c-3.186-1.462-6.372-2.924-9.559-4.386c-1.214-1.391-2.455-2.759-3.638-4.176
	c-3.735-4.479-4.592-9.427-2.528-14.925c1.144-3.045,3.106-5.349,5.598-7.369C807.334,921.81,809.516,921.685,810.286,919.694z
	 M830.143,941.08c0-2.765,0.009-4.032-0.006-5.3c-0.004-0.314-0.098-0.627-0.123-0.942c-0.142-1.731-1.51-2.493-3.399-1.855
	c-0.599,0.202-1.179,0.468-1.749,0.741c-2.121,1.016-4.099,1.234-6.201-0.29c-0.944-0.685-2.35-0.789-3.571-1.02
	c-1.042-0.195-2.553,0.821-3.02,1.859c-0.643,1.427-0.118,3.545,1.093,4.218c1.105,0.613,2.195,1.318,3.382,1.713
	c3.921,1.302,7.754,2.75,11.152,5.176c0.64,0.457,2.085-0.326,2.147-1.086C829.977,942.724,830.135,941.159,830.143,941.08z"/>
<path fill-rule="evenodd" clip-rule="evenodd" fill="#8A8B85" d="M645.377,735.076c0.818-1.847,2.65-2.538,4.136-3.623
	c2.25-1.643,4.529-3.247,6.749-4.93c0.954-0.724,1.167-2.452,0.384-3.366c-2.217-2.585-4.491-5.123-6.785-7.641
	c-1.022-1.122-2.536-1.828-2.887-3.502c1.261-0.491,2.284-1.327,2.367-2.703c0.191-3.188,0.175-6.389,0.322-9.581
	c0.043-0.94,0.229-1.917,0.582-2.783c0.215-0.527,0.823-1.162,1.339-1.25c1.876-0.318,3.788-0.585,5.687-0.587
	c28.47-0.035,56.941-0.015,85.412-0.038c3.226-0.003,6.283,0.067,9.03,2.317c1.09,0.893,2.987,0.979,4.541,1.091
	c3.182,0.229,6.382,0.181,9.57,0.343c1.062,0.054,1.526,0.966,1.843,1.889c-22.001-1.026-44.016-0.833-66.029-0.737
	c-1.24,0.005-2.51,0.296-3.703,0.661c-0.516,0.158-0.908,0.814-1.28,1.302c-0.179,0.234-0.233,0.601-0.253,0.913
	c-0.451,7.007-0.57,14.015,0.135,21.013c0.2,1.986,1.614,3.251,3.918,3.354c3.822,0.169,7.651,0.177,11.476,0.303
	c1.267,0.042,2.602,0.031,3.765,0.441c0.751,0.265,1.46,1.159,1.801,1.94c0.365,0.834,0.369,1.868,0.371,2.815
	c0.038,27.125,0.058,54.25,0.057,81.375c0,0.619-0.284,1.238-0.435,1.858c-3.099-1-6.302-0.839-9.492-0.888
	c-1.907-0.029-3.814-0.17-5.716-0.324c-1.141-0.092-2.437-1.414-2.487-2.543c-0.127-2.864-0.272-5.731-0.275-8.597
	c-0.023-21.074-0.007-42.148-0.019-63.222c-0.001-2.872,0-5.75-0.173-8.614c-0.09-1.481-1.275-2.023-2.657-2.105
	c-0.319-0.019-0.637-0.048-0.956-0.073c-0.085-1.254-0.363-2.531-0.225-3.76c0.789-7,0.471-14.016,0.408-21.026
	c-0.032-3.598-1.097-4.714-4.4-4.797c-3.824-0.096-7.652-0.106-11.478-0.075c-3.183,0.026-6.366,0.147-9.548,0.266
	c-1.141,0.042-2.326,1.307-2.375,2.516c-0.103,2.545-0.217,5.093-0.222,7.64c-0.023,12.117,0.002,24.235-0.025,36.353
	c-0.004,1.907-0.036,3.841-0.362,5.709c-0.142,0.813-0.871,1.741-1.98,1.819c-2.215,0.155-4.433,0.369-6.65,0.368
	c-16.263-0.002-32.526-0.072-48.789-0.081c-11.94-0.006-10.957-1.043-11.064,10.546c-0.044,4.766,0.482,9.551-0.353,14.299
	c-3.754-0.982-7.601-0.578-11.409-0.771c-3.635-0.184-5.391-1.786-5.44-5.234c-0.087-6.05-0.038-12.103-0.023-18.153
	c0.002-0.628,0.155-1.256,0.238-1.885c0.187-1.431,1.729-2.892,3.288-2.958c2.543-0.109,5.091-0.17,7.637-0.172
	c14.97-0.015,29.94-0.001,44.91-0.015c2.546-0.002,5.095-0.035,7.638-0.15c2.047-0.092,3.803-1.639,3.85-3.524
	c0.08-3.17,0.06-6.35-0.103-9.516c-0.047-0.92-0.904-1.584-1.967-1.684C646.638,735.242,646.008,735.152,645.377,735.076z"/>
<path fill-rule="evenodd" clip-rule="evenodd" fill="#8A8B85" d="M462.673,700.407c-1.26,0.079-2.521,0.243-3.78,0.222
	c-12.403-0.204-24.805-0.453-37.209-0.643c-1.256-0.02-2.545,0.151-3.762,0.46c-0.522,0.133-1.155,0.781-1.289,1.308
	c-0.308,1.219-0.453,2.506-0.466,3.768c-0.053,5.09-0.036,10.181-0.036,15.271c0,29.589,0.009,59.178-0.009,88.767
	c-0.001,2.204,0.358,4.457-0.575,6.586c-1.867-0.352-3.72-0.868-5.602-1.014c-2.542-0.198-5.107-0.061-7.66-0.159
	c-2.755-0.105-3.915-1.361-4.022-4.253c-0.059-1.596-0.062-3.194-0.062-4.791c-0.003-33.858,0.01-67.718-0.011-101.577
	c-0.005-8.832-0.131-9.333,8.781-9.282c10.541,0.06,21.083-0.051,31.622,0.065c3.172,0.035,6.462,0.143,9.479,0.993
	C452.949,697.503,458.252,697.493,462.673,700.407z"/>
<path fill-rule="evenodd" clip-rule="evenodd" fill="#8A8B85" d="M954.024,700.562c-7.028-0.209-14.056-0.453-21.084-0.602
	c-1.575-0.034-3.159,0.237-4.734,0.415c-1.134,0.127-1.769,1.129-1.843,1.952c-0.256,2.858-0.313,5.74-0.315,8.613
	c-0.019,32.614-0.004,65.229-0.031,97.843c-0.001,2.217-0.267,4.435-0.409,6.651c-1.194,0.136-2.39,0.272-3.585,0.409
	c-0.857-4.718-0.177-9.475-0.355-14.21c-0.084-2.215-0.009-4.437-0.076-6.654c-0.085-2.827-1.185-3.927-4.106-3.945
	c-8.551-0.053-17.103-0.042-25.653-0.059c-1.268-0.002-2.536,0.001-3.803-0.039c-2.656-0.083-3.567-1.096-3.751-4.337
	c-0.032-0.567,0.372-1.16,0.574-1.741c3.355,1.5,6.915,0.861,10.38,0.87c12.172,0.028,12.111,1.332,12.097-11.752
	c-0.023-21.983-0.008-43.966-0.004-65.95c0.001-2.548-0.024-5.099,0.066-7.645c0.131-3.667,1.61-5.173,5.368-5.227
	c6.37-0.091,12.742-0.037,19.114-0.046c1.951-0.003,3.801,0.295,5.348,1.63c1.522,1.313,3.338,1.754,5.309,1.787
	c3.181,0.052,6.362,0.123,9.541,0.256C953.13,698.823,953.641,699.669,954.024,700.562z"/>
<path fill-rule="evenodd" clip-rule="evenodd" fill="#8A8B85" d="M884.476,700.891c-8.301-0.285-16.602-0.595-24.904-0.836
	c-1.688-0.049-3.034,1.305-3.087,2.944c-0.092,2.875-0.161,5.752-0.162,8.628c-0.012,28.79,0.002,57.58-0.033,86.37
	c-0.002,1.836-0.32,3.677-0.562,5.506c-0.091,0.693-0.492,0.719-0.936,0.126c-0.571-0.764-1.269-1.458-1.712-2.29
	c-6.013-11.283-12.007-22.577-17.947-33.899c-0.421-0.802-0.389-1.842-0.567-2.771c1.737-0.505,2.879-1.205,2.937-1.955
	c0.222-2.854,0.542-5.711,0.552-8.567c0.053-15.97,0.013-31.939,0.039-47.91c0.004-2.547,0.133-5.098,0.296-7.642
	c0.09-1.393,1.794-3.059,3.147-3.226c0.949-0.118,1.904-0.25,2.857-0.253c5.749-0.023,11.498,0.009,17.247-0.021
	c2.314-0.012,4.371,0.449,6.116,2.153c1.2,1.172,2.891,1.209,4.493,1.263c3.502,0.117,7.009,0.161,10.506,0.373
	C883.78,698.948,884.218,699.945,884.476,700.891z"/>
<path fill-rule="evenodd" clip-rule="evenodd" fill="#8A8B85" d="M795.6,709.115c-0.085,0.626-0.01,1.333-0.277,1.869
	c-11.526,23.15-23.094,46.28-34.629,69.426c-3.989,8.002-7.885,16.051-11.896,24.041c-0.383,0.762-1.26,1.296-1.972,1.854
	c-0.134,0.104-0.627-0.125-0.862-0.315c-0.198-0.161-0.365-0.487-0.367-0.742c-0.114-12.777-0.218-25.554-0.278-38.331
	c-0.003-0.6,0.401-1.202,0.615-1.804c1.129-0.433,2.483-0.381,3.153-1.734c4.805-9.688,9.64-19.362,14.447-29.049
	c0.279-0.562,0.399-1.201,0.605-1.8c0.526-1.532-0.572-3.414-2.132-3.5c-5.387-0.294-10.789-0.874-16.109,0.61
	c0.036-0.951,0.102-2.105,1.239-2.184c3.491-0.245,6.995-0.327,10.495-0.414c2.237-0.055,4.476,0.021,6.714-0.013
	c2.125-0.031,3.016-0.839,3.125-2.715c0.128-2.214-0.424-4.481,0.515-6.632c1.226,0.493,2.514,0.712,3.38-0.49
	c0.91-1.262,1.635-2.669,2.345-4.062c2.573-5.046,5.076-10.129,7.668-15.166c1.144-2.223,2.681-2.197,4.136,0.088
	c2.027,3.183,3.874,6.481,5.955,9.626C792.385,709.063,793.885,709.607,795.6,709.115z"/>
<path fill-rule="evenodd" clip-rule="evenodd" fill="#8A8B85" d="M614.435,696.462c-2.852,0.762-5.714,0.141-8.551-0.04
	c-28.469-1.818-55.198,19.186-61.772,46.968c-1.09,4.607-1.393,9.464-1.523,14.22c-0.173,6.364,0.218,12.734,1.948,18.938
	c4.785,17.15,14.89,30.043,30.693,38.368c1.113,0.586,2.388,0.89,2.916,2.216c-8.621,0.143-16.098-3.26-23.285-7.535
	c-3.849-2.289-7.315-5.083-10.571-8.149c-1.049-0.989-2.335-0.741-3.589-0.619c-0.244-1.229-0.701-2.459-0.7-3.689
	c0.018-26.105,0.097-52.211,0.134-78.317c0.004-2.862-0.235-5.725-0.229-8.587c0.002-0.912,0.434-1.824,0.669-2.735
	c1.18,0.335,2.349,1.062,3.572,0.133c2.021-1.533,4.038-3.072,6.056-4.611c7.735-5.896,16.539-9.559,26.029-11.012
	c8.461-1.295,17.078-1.421,25.55,0.604c3.088,0.738,6.198,1.398,9.258,2.241C612.229,695.184,613.306,695.915,614.435,696.462z"/>
<path fill-rule="evenodd" clip-rule="evenodd" fill="#8A8B85" d="M954.384,759.98c-0.145-0.939-0.418-1.879-0.415-2.818
	c0.047-15.978,0.136-31.955,0.195-47.933c0.011-2.872-0.066-5.743-0.104-8.615c0.941,0.049,1.914,0.269,2.814,0.099
	c0.901-0.17,1.771-0.656,2.584-1.126c8.338-4.834,17.382-5.306,26.66-4.367c0.627,0.063,1.308,0.056,1.865,0.303
	c4.678,2.071,9.774,2.452,14.648,3.721c0.579,0.15,1.065,0.655,1.594,0.996c-2.537-0.051-5.096,0.092-7.607-0.183
	c-18.749-2.051-39.577,14.765-36.232,40.279c0.986,7.527,4.801,13.799,10.308,18.992c3.748,3.533,7.972,6.387,12.806,8.227
	c3.574,1.36,7.209,2.56,10.81,3.853c2.1,0.754,4.299,1.334,6.254,2.371c4.53,2.4,7.031,7.512,3.677,12.96
	c-0.489,0.793-1.152,1.538-1.887,2.111c-3.075,2.397-8.532,2.581-11.728,0.427c-2.676-1.804-4.952-4.021-6.515-6.875
	c-0.283-0.517-0.235-1.216-0.34-1.831c0.316-0.015,0.638,0.002,0.947-0.051c1.763-0.302,2.434-0.913,2.599-2.09
	c0.503-3.581-0.833-6.23-4.074-7.763c-2.281-1.079-4.676-1.921-7.029-2.843c-1.765-0.692-3.891-0.938-5.255-2.092
	c-4.044-3.423-9.25-3.977-13.812-6.076C956.428,759.324,955.316,759.85,954.384,759.98z"/>
<path fill-rule="evenodd" clip-rule="evenodd" fill="#8A8B85" d="M1150.121,700.292c-5.724-0.068-11.448-0.129-17.172-0.208
	c-1.59-0.021-3.18-0.134-4.77-0.135c-4.238-0.002-5.194,0.854-5.288,4.784c-0.061,2.544-0.045,5.092-0.046,7.638
	c-0.004,11.777,0.008,23.555-0.016,35.333c-0.003,1.584-0.085,3.183-0.335,4.743c-0.056,0.343-0.989,0.763-1.511,0.753
	c-0.568-0.011-1.234-0.363-1.678-0.766c-6.589-5.986-13.156-11.996-19.695-18.035c-0.441-0.407-0.623-1.094-0.925-1.65
	c0.594,0.194,1.204,0.349,1.778,0.589c2.78,1.158,3.848,0.755,3.906-1.566c0.064-2.546,0.067-5.094,0.071-7.642
	c0.011-7.324-0.02-14.649,0.031-21.974c0.011-1.575,0.111-3.199,0.527-4.702c0.209-0.757,1.116-1.502,1.89-1.873
	c0.818-0.392,1.852-0.445,2.792-0.451c6.369-0.037,12.737-0.021,19.107-0.023c1.947-0.001,3.828,0.226,5.292,1.7
	c1.203,1.212,2.733,1.599,4.339,1.662c3.18,0.125,6.362,0.144,9.543,0.233C1149.024,698.732,1149.615,699.472,1150.121,700.292z"/>
<path fill-rule="evenodd" clip-rule="evenodd" fill="#8A8B85" d="M1015.471,732.638c0.648-0.624,1.207-1.403,1.961-1.848
	c4.065-2.396,8.184-4.701,12.271-7.058c1.121-0.646,1.456-2.207,0.788-3.281c-4.215-6.78-9.093-12.854-16.723-16.112
	c-0.798-0.341-1.383-1.185-2.065-1.795c2.381-0.216,4.101-0.99,4.432-3.812c0.3-2.559,1.154-3.574,4.583-3.6
	c7.556-0.056,15.11-0.065,22.666-0.106c1.602-0.008,3.227,0.11,4.48,1.139c2.354,1.931,5.08,2.318,7.967,2.381
	c1.563,0.035,3.139,0.165,4.673,0.444c0.501,0.091,0.893,0.788,1.333,1.208c-3.186,0.038-6.371,0.127-9.556,0.096
	c-1.913-0.019-3.825-0.332-5.738-0.329c-14.334,0.026-12.926-1.735-12.964,12.563c-0.039,15.012-0.001,30.025-0.014,45.037
	c-0.003,2.874-0.044,5.75-0.161,8.621c-0.021,0.512-0.391,1.157-0.804,1.473c-0.668,0.51-1.111,0.132-1.496-0.604
	c-3.943-7.534-9.561-13.473-16.978-17.684c-0.242-0.138-0.339-0.531-0.504-0.805c1.938-0.625,3.359-1.657,3.321-3.962
	c-0.048-2.838,0.086-5.687-0.129-8.51C1016.726,734.916,1015.94,733.789,1015.471,732.638z"/>
<path fill-rule="evenodd" clip-rule="evenodd" fill="#8A8B85" d="M1253.886,753.987c-2.127,0.841-4.358,0.585-6.555,0.585
	c-11.059-0.001-22.117-0.038-33.176-0.057c-2.528-0.004-5.057-0.023-7.583,0.032c-3.039,0.066-4.172,1.066-4.239,3.803
	c-0.078,3.158,0.019,6.321-0.09,9.477c-0.129,3.773,0.509,7.574-0.384,11.32c-3.169-0.165-6.339-0.323-9.508-0.498
	c-1.58-0.087-3.162-0.178-4.739-0.316c-1.12-0.098-2.433-1.39-2.568-2.464c-0.119-0.94-0.3-1.884-0.305-2.827
	c-0.034-5.723-0.086-11.446-0.013-17.168c0.066-5.247,1.426-6.467,7.005-6.621c0.635-0.018,1.271-0.015,1.907-0.015
	c17.169-0.001,34.338-0.007,51.507,0.008c1.586,0.001,3.186,0.023,4.752,0.237C1252.452,749.831,1253.789,751.395,1253.886,753.987z
	"/>
<path fill-rule="evenodd" clip-rule="evenodd" fill="#8A8B85" d="M1217.375,696.373c-2.843,0.796-5.695,0.084-8.539,0.023
	c-21.332-0.457-38.09,8.385-51.017,25.032c-0.974,1.254-1.695,2.718-2.745,3.896c-1.148,1.29-1.288,4.409-3.65,3.475
	c-1.882-0.744-0.747-3.373-0.799-5.136c-0.188-6.358-0.216-12.723-0.238-19.085c-0.003-0.923,0.354-1.848,0.545-2.771
	c1.222,0.122,2.398,0.829,3.678,0.134c2.791-1.516,5.607-2.982,8.413-4.471c8.021-4.257,16.574-6.285,25.652-6.128
	c3.176,0.055,6.356-0.021,9.528,0.117C1203.751,691.699,1211.662,693.784,1217.375,696.373z"/>
<path fill-rule="evenodd" clip-rule="evenodd" fill="#8A8B85" d="M539.598,700.228c-5.745-0.04-11.489-0.074-17.233-0.124
	c-1.915-0.017-3.831-0.126-5.745-0.103c-2.854,0.034-3.999,1.139-4.018,4.068c-0.06,9.266-0.034,18.531-0.074,27.797
	c-0.015,3.513-0.164,7.025-0.15,10.538c0.004,0.889-0.102,1.311-0.856,1.145c-0.225-0.049-0.481-0.316-0.575-0.545
	c-0.733-1.769-1.438-3.55-2.138-5.333c-3.455-8.787-8.549-16.385-16.016-22.3c-1.219-0.966-2.714-1.745-3.176-3.438
	c0.315-0.01,0.635,0.009,0.946-0.035c2.457-0.344,3.288-0.894,3.385-2.354c0.125-1.886,0.183-3.776,0.255-5.665
	c0.073-1.889,0.091-3.781,0.203-5.667c0.087-1.455,1.61-2.923,3.2-2.939c7.255-0.072,14.512-0.129,21.767-0.051
	c1.176,0.013,2.625,0.433,3.457,1.198c1.787,1.643,3.811,2.08,6.07,2.112c2.838,0.041,5.683,0.002,8.507,0.229
	C538.171,698.822,538.869,699.716,539.598,700.228z"/>
<path fill-rule="evenodd" clip-rule="evenodd" fill="#8A8B85" d="M1091.301,779.515c-1.131-4.08-0.216-8.17-0.001-12.25
	c0.024-0.454,0.683-1.087,1.173-1.247c0.506-0.164,1.353-0.055,1.731,0.287c4.709,4.25,9.396,8.527,14.018,12.872
	c5.778,5.433,11.456,10.973,17.246,16.393c3.471,3.249,7.102,6.326,10.596,9.551c0.898,0.829,1.552,1.924,2.317,2.896
	c-3.284,0.284-3.295,0.28-3.982,2.735c-0.17,0.608-0.214,1.251-0.376,1.862c-0.078,0.292-0.237,0.686-0.47,0.789
	c-0.521,0.232-1.148,0.504-1.662,0.402c-0.576-0.114-1.146-0.546-1.594-0.971c-4.826-4.583-9.632-9.188-14.436-13.794
	c-4.567-4.378-8.757-9.141-14.018-12.801c-2.311-1.608-4.202-3.85-6.168-5.914C1094.347,778.929,1092.843,779.315,1091.301,779.515z
	"/>
<path fill-rule="evenodd" clip-rule="evenodd" fill="#8A8B85" d="M491.599,805.98c0.796-0.948,1.473-2.038,2.406-2.822
	c6.483-5.446,10.931-12.332,14.296-19.99c1.022-2.326,1.915-4.708,2.893-7.052c0.395-0.945,0.741-0.941,0.949-0.035
	c0.059,0.258,0.209,0.509,0.21,0.764c0.019,12.709,0.027,25.417,0.024,38.126c0,0.309-0.144,0.617-0.22,0.926
	c-4.284-1.237-8.691-0.641-13.043-0.882c-2.996-0.166-4.092-1.207-4.846-4.607c-0.135-0.607-0.163-1.237-0.266-1.852
	c-0.051-0.303-0.068-0.699-0.261-0.874C493.065,807.073,492.319,806.542,491.599,805.98z"/>
<path fill-rule="evenodd" clip-rule="evenodd" fill="#8A8B85" d="M646.459,808.49c0.795-0.952,1.468-2.05,2.406-2.832
	c7.01-5.842,11.628-13.324,15.027-21.656c0.956-2.343,1.82-4.723,2.766-7.069c0.076-0.189,0.466-0.251,1.038-0.534
	c0.057,2.542,0.151,4.934,0.158,7.326c0.025,9.515,0.038,19.031,0.01,28.546c-0.004,1.248-0.279,2.496-0.428,3.744
	c-3.639-1.256-7.417-0.86-11.156-0.948c-1.246-0.029-2.505-0.06-3.729-0.266c-1.279-0.216-2.261-0.938-2.744-2.238
	C649.163,810.828,648.725,808.901,646.459,808.49z"/>
<path fill-rule="evenodd" clip-rule="evenodd" fill="#8A8B85" d="M802.585,794.5c4.709-0.766,9.432-0.245,14.148-0.141
	c1.341,0.029,2.425,0.693,3.029,1.91c3.212,6.47,6.872,12.727,9.357,19.545c-3.994-0.987-8.074-0.665-12.123-0.779
	c-2.775-0.078-4.709-1.337-5.947-3.809C808.25,805.641,805.41,800.074,802.585,794.5z"/>
<path fill-rule="evenodd" clip-rule="evenodd" fill="#8A8B85" d="M774.104,923.588c0.062,0.312,0.275,0.696,0.165,0.924
	c-7.346,15.104-14.718,30.196-22.1,45.283c-0.131,0.268-0.398,0.605-0.647,0.649c-0.589,0.104-1.436,0.313-1.775,0.018
	c-2.114-1.849-4.355-3.64-5.124-6.553c1.676,0.431,3.17,0.142,4.198-1.327c0.726-1.037,1.363-2.155,1.898-3.303
	c3.896-8.345,8.539-16.323,11.863-24.958c1.591-4.133,3.876-8.004,5.934-11.948c0.56-1.073,1.187-2.361,2.786-2.126
	c1.378,0.203,2.166,1.151,2.612,2.407C774.021,922.951,774.043,923.276,774.104,923.588z"/>
<path fill-rule="evenodd" clip-rule="evenodd" fill="#8A8B85" d="M1205.842,782.904c0.927-0.177,1.858-0.535,2.778-0.503
	c7.599,0.262,15.195,0.58,22.787,0.975c0.298,0.016,0.781,1.007,0.751,1.518c-0.034,0.556-0.461,1.201-0.903,1.597
	c-0.94,0.839-1.939,1.65-3.024,2.282c-10.211,5.947-20.986,6.603-32.101,3.15c-2.397-0.745-4.65-1.981-6.914-3.103
	c-0.483-0.24-0.725-0.966-1.077-1.468c3.826,0.06,7.658,0.258,11.477,0.11c1.524-0.059,3.075-0.759,4.51-1.399
	C1205.381,785.501,1205.815,784.256,1205.842,782.904z"/>
<path fill-rule="evenodd" clip-rule="evenodd" fill="#8A8B85" d="M1151.023,806.479c-1.009-5.674-0.308-11.377-0.248-17.067
	c0.002-0.101,0.552-0.269,0.848-0.272c0.276-0.003,0.652,0.088,0.816,0.281c0.605,0.714,1.2,1.452,1.695,2.245
	c6.541,10.479,14.887,18.957,26.379,24.009c0.817,0.359,1.422,1.205,2.124,1.823c-8.149-0.051-15.405-3.021-22.361-6.908
	c-1.931-1.079-3.672-2.515-5.643-3.5C1153.588,806.569,1152.237,806.663,1151.023,806.479z"/>
<path fill-rule="evenodd" clip-rule="evenodd" fill="#8A8B85" d="M810.286,919.694c-0.77,1.991-2.951,2.116-4.37,3.267
	c-2.491,2.021-4.454,4.324-5.598,7.369c-2.063,5.498-1.207,10.446,2.528,14.925c1.183,1.417,2.424,2.785,3.638,4.176
	c-1.347,2.813-1.379,2.944,0.813,4.253c1.051,0.627,2.126,1.101,2.442,2.416c-3.356,0.05-6.716,0.047-10.069,0.174
	c-1.522,0.059-3.146,0.484-4.359-0.65c-1.098-1.028-2.002-2.313-2.029-3.966c2.692,1.327,5.44,1.392,8.264,0.438
	c1.144-0.386,1.906-2.251,1.118-3.016c-1.35-1.311-2.745-2.572-4.127-3.848c-3.184-2.938-4.513-6.515-4.875-10.894
	c-0.577-6.979,2.716-11.396,8.214-14.769c1.934-1.187,4.063-1.758,6.343-1.507C809.201,918.17,809.929,918.728,810.286,919.694z"/>
<path fill-rule="evenodd" clip-rule="evenodd" fill="#8A8B85" d="M885.172,921.572c-3.761,9.778-7.497,19.566-11.292,29.332
	c-1.381,3.553-2.889,7.057-4.385,10.563c-0.063,0.148-0.59,0.17-0.884,0.129c-0.215-0.029-0.561-0.239-0.58-0.402
	c-0.548-4.562-0.577-18.014-0.082-22.812c1.612,0.685,3.209,0.674,3.934-1.108c2.357-5.808,4.536-11.688,6.865-17.508
	c0.155-0.387,1.143-0.832,1.499-0.68C881.935,919.806,883.539,920.724,885.172,921.572z"/>
<path fill-rule="evenodd" clip-rule="evenodd" fill="#8A8B85" d="M1059.906,819.388c1.47-1.405,2.081-3.224,2.217-5.159
	c0.201-2.862,0.313-5.737,0.315-8.607c0.021-28.747,0.027-57.494-0.007-86.241c-0.004-3.507-0.304-7.014-0.401-10.522
	c-0.08-2.869-0.062-5.74-0.086-8.61c0.678-0.421,1.296-0.346,1.854,0.227c-0.709,9.238-0.902,18.488-0.879,27.753
	c0.063,25.547,0.035,51.095,0.011,76.643c-0.005,4.797,0.048,9.58,0.948,14.312C1062.573,819.632,1061.266,820.034,1059.906,819.388
	z"/>
<path fill-rule="evenodd" clip-rule="evenodd" fill="#8A8B85" d="M914.257,923.529c0.044,0.315,0.23,0.707,0.109,0.935
	c-4.031,7.552-8.09,15.088-12.147,22.625c-0.397,0.739-1.823,0.619-2.36-0.258c-1.466-2.393-3.764-4.365-3.857-7.468
	c1.755,0.644,3.281,0.036,4.115-1.409c2.541-4.406,4.854-8.943,7.322-13.393c0.921-1.661,2.009-3.23,3.052-4.821
	c0.445-0.679,2.058-0.55,2.428,0.252C913.447,921.133,913.819,922.346,914.257,923.529z"/>
<path fill-rule="evenodd" clip-rule="evenodd" fill="#8A8B85" d="M1201.861,725.146c1.174-0.438,2.348-1.253,3.522-1.256
	c10.229-0.017,19.437,2.931,27.173,9.845c0.205,0.183,0.204,0.595,0.299,0.899c-1.852-0.26-3.677-1.061-5.553,0.076
	c-1.079,0.653-2.267,1.177-3.467,1.566c-1.271,0.412-2.633,0.181-3.604-0.699c-2.125-1.924-4.106-4.004-6.155-6.012
	c-2.611-2.561-5.644-4.092-9.409-3.982C1203.737,725.61,1202.796,725.301,1201.861,725.146z"/>
<path fill-rule="evenodd" clip-rule="evenodd" fill="#8A8B85" d="M1013.61,815.256c0.398-0.463,0.704-1.132,1.209-1.358
	c7.521-3.367,12.715-9.008,16.233-16.345c0.222-0.46,0.785-0.782,1.237-1.101c0.554-0.39,1.126,0.562,1.16,2.068
	c0.062,2.825,0.173,5.653,0.099,8.475c-0.073,2.805,0.503,5.647-0.396,8.414C1026.638,815.358,1020.125,815.307,1013.61,815.256z"/>
<path fill-rule="evenodd" clip-rule="evenodd" fill="#8A8B85" d="M374.901,875.067c-2.685-2.42-2.451-5.258-1.18-8.244
	C376.239,870.09,376.504,871.946,374.901,875.067z"/>
<path fill-rule="evenodd" clip-rule="evenodd" fill="#8A8B85" d="M1182.796,817.546c2.285-0.623,4.061,0.347,5.675,1.818
	C1186.191,819.969,1184.287,819.403,1182.796,817.546z"/>
<path fill-rule="evenodd" clip-rule="evenodd" fill="#8A8B85" d="M1148.281,817.433c0.646,0.084,1.291,0.169,1.938,0.254
	c0.234,0.854-0.139,1.424-0.951,1.171C1148.833,818.723,1148.603,817.929,1148.281,817.433z"/>
<path fill-rule="evenodd" clip-rule="evenodd" fill="#8A8B85" d="M1098.493,732.563c-1.1-0.031-1.68-0.609-1.777-1.693
	C1097.878,730.836,1098.491,731.379,1098.493,732.563z"/>
<path fill-rule="evenodd" clip-rule="evenodd" fill="#8A8B85" d="M1096.545,730.711c-1.135-0.04-1.731-0.635-1.814-1.76
	C1095.907,728.949,1096.524,729.523,1096.545,730.711z"/>
<path fill-rule="evenodd" clip-rule="evenodd" fill="#8A8B85" d="M867.759,921.261c-0.695-0.538-1.39-1.076-2.085-1.613
	C867.522,919.452,867.522,919.452,867.759,921.261z"/>
<path fill-rule="evenodd" clip-rule="evenodd" fill="#8A8B85" d="M587.427,788.86c1.57-0.086,3.149-0.328,4.707-0.229
	c4.26,0.269,8.112-1.159,11.866-2.823c1.048-0.464,1.725-1.765,2.572-2.682c0.614-0.172,1.232-0.506,1.843-0.492
	c6.391,0.144,12.78,0.352,19.171,0.513c0.806,0.02,1.278,0.324,1.207,1.147c-0.051,0.585-0.113,1.336-0.48,1.702
	c-3.01,3.001-6.7,4.941-10.71,6.149c-9.869,2.974-19.575,2.499-28.986-1.872C588.11,790.038,587.819,789.342,587.427,788.86z"/>
<path fill-rule="evenodd" clip-rule="evenodd" fill="#8A8B85" d="M627.661,733.126c-1.888,0.291-3.681,0.679-5.306,1.893
	c-3.235,2.419-5.185,1.286-7.205-1.488c-1.53-2.102-3.394-3.726-5.469-5.254c-2.13-1.569-4.312-2.614-6.992-2.657
	c-1.252-0.02-2.5-0.348-3.748-0.536c1.284-1.13,2.845-1.375,4.458-1.287c8.768,0.484,16.915,2.737,23.798,8.499
	C627.425,732.487,627.51,732.846,627.661,733.126z"/>
<path fill-rule="evenodd" clip-rule="evenodd" fill="#8A8B85" d="M830.143,941.08c-0.008,0.079-0.166,1.645-0.295,3.214
	c-0.063,0.76-1.508,1.543-2.147,1.086c-3.398-2.426-7.231-3.874-11.152-5.176c-1.187-0.395-2.276-1.1-3.382-1.713
	c-1.211-0.673-1.735-2.791-1.093-4.218c0.467-1.038,1.978-2.055,3.02-1.859c1.222,0.23,2.627,0.335,3.571,1.02
	c2.103,1.524,4.08,1.306,6.201,0.29c0.57-0.273,1.15-0.539,1.749-0.741c1.89-0.638,3.258,0.124,3.399,1.855
	c0.025,0.315,0.119,0.628,0.123,0.942C830.152,937.047,830.143,938.315,830.143,941.08z"/>
<path fill-rule="evenodd" clip-rule="evenodd" fill="#FEFEFE" d="M809.739,956.099c-0.316-1.315-1.392-1.789-2.442-2.416
	c-2.191-1.309-2.159-1.44-0.813-4.253c3.187,1.462,6.373,2.924,9.559,4.386c-1.121,3.365-1.645,4.277-5.57,3.67
	C810.213,957.031,809.969,956.569,809.739,956.099z"/>
<path fill-rule="evenodd" clip-rule="evenodd" fill="#8A8B85" d="M810.472,957.486c3.926,0.607,4.449-0.305,5.57-3.67
	c0.871,0.176,1.942,0.102,2.558,0.596c0.646,0.519,1.095,1.55,1.208,2.411c0.275,2.098-1.689,4.404-3.82,4.453
	C813.319,961.335,811.155,960.428,810.472,957.486z"/>
</svg>
