<?xml version="1.0" encoding="utf-8"?>
<!-- Generator: Adobe Illustrator 16.0.0, SVG Export Plug-In . SVG Version: 6.00 Build 0)  -->
<!DOCTYPE svg PUBLIC "-//W3C//DTD SVG 1.1//EN" "http://www.w3.org/Graphics/SVG/1.1/DTD/svg11.dtd">
<svg version="1.1" id="Layer_1" xmlns="http://www.w3.org/2000/svg" xmlns:xlink="http://www.w3.org/1999/xlink" x="0px" y="0px"
	 width="330.446px" height="127.263px" viewBox="0 0 330.446 127.263" enable-background="new 0 0 330.446 127.263"
	 xml:space="preserve">
<path fill-rule="evenodd" clip-rule="evenodd" fill="#BDFE29" d="M281.616,53.824c-0.399,1.592,1.287,4.075-2.393,4.166
	c-6.408,0.157-6.404,0.329-6.673-3.783c-1.502-22.994-20.331-42.372-43.252-44.612c-1.766-0.173-4.424,0.575-5.094-1.225
	c-0.776-2.089-0.494-4.7-0.19-7.022c0.269-2.058,2.232-1.174,3.398-1.075c19.399,1.646,34.642,10.444,45.333,26.793
	C278.042,35.164,280.872,44.144,281.616,53.824z"/>
<path fill-rule="evenodd" clip-rule="evenodd" fill="#0B0B0B" d="M15.662,48.872c3.6-0.129,7.21-0.493,10.768,0.554
	c4.417,1.299,7.066,4.117,7.667,8.649c1.14,8.587-0.256,16.917-3.337,24.909c-2.097,5.441-6.7,7.891-12.29,8.356
	C13,91.795,7.513,91.553,2.033,91.153c-1.781-0.13-2.238-0.597-1.957-2.483c1.836-12.315,3.591-24.645,5.184-36.995
	c0.297-2.304,1.211-2.925,3.3-2.828C10.923,48.957,13.294,48.872,15.662,48.872z M17.111,53.275c-0.872,0-1.76,0.109-2.612-0.02
	c-3.25-0.491-4.407,0.732-4.705,4.125c-0.609,6.929-1.888,13.798-2.792,20.704c-1.239,9.483-1.199,9.488,8.483,8.748
	c6.528-0.499,9.326-2.728,11.221-8.997c1.193-3.946,1.861-8,2.117-12.102C29.495,55.008,27.754,53.188,17.111,53.275z"/>
<path fill-rule="evenodd" clip-rule="evenodd" fill="#0B0B0B" d="M75.2,86.156c-3.944,3.359-7.81,5.711-12.756,5.519
	c-4.449-0.172-7.029-2.314-7.496-6.72c-0.641-6.054,0.252-11.965,2.443-17.624c1.534-3.961,4.638-6.113,8.858-6.48
	c5.254-0.458,10.466,0.135,15.669,0.834c1.574,0.211,2.032,0.892,1.786,2.5c-1.458,9.488-2.645,19.021-4.282,28.477
	c-0.932,5.385-4.533,8.731-9.808,10.194c-4.663,1.293-9.401,1.05-14.125,0.53c-1.055-0.116-2.609,0.016-2.307-2.08
	c0.271-1.873,1.211-2.028,2.796-1.954c2.613,0.121,5.248,0.104,7.857-0.084C71.918,98.684,75.249,94.938,75.2,86.156z
	 M60.129,79.702c-0.612,7.208,2.298,9.271,8.403,6.344c4.931-2.363,8.087-5.601,8.575-11.818c0.797-10.153,1.167-10.227-9.194-8.97
	c-3.182,0.386-5.268,1.878-6.154,5.053C60.853,73.563,60.3,76.858,60.129,79.702z"/>
<path fill-rule="evenodd" clip-rule="evenodd" fill="#0B0B0B" d="M295.604,86.704c-3.951,2.735-7.552,5.15-12.201,4.985
	c-4.785-0.17-7.473-2.427-7.864-7.202c-0.475-5.8,0.406-11.469,2.434-16.904c1.475-3.954,4.462-6.287,8.691-6.704
	c5.375-0.529,10.715,0.081,16.038,0.828c1.48,0.208,2.041,0.745,1.764,2.468c-1.426,8.862-2.593,17.765-4.017,26.627
	c-1.231,7.665-5.498,11.75-13.037,12.684c-3.476,0.431-6.986,0.467-10.461-0.012c-1.285-0.178-3.178,0.302-3.049-2.216
	c0.128-2.479,1.752-1.836,3.174-1.86c2.869-0.048,5.75,0.012,8.602-0.25C292.682,98.505,295.926,94.585,295.604,86.704z
	 M293.129,65.116c-8.782-0.054-10.358,1.239-11.675,9.869c-0.393,2.571-0.575,5.178-0.755,7.775
	c-0.222,3.185,1.366,4.526,4.513,4.368c5.668-0.283,11.368-5.394,12.135-10.975c0.236-1.722,0.516-3.438,0.757-5.16
	C298.921,65.152,298.918,65.152,293.129,65.116z"/>
<path fill-rule="evenodd" clip-rule="evenodd" fill="#0B0B0B" d="M258.5,57.939c-3.08,0.948-3.803-0.759-4.178-4.17
	c-1.477-13.41-12.327-24.06-25.977-26.192c-1.469-0.229-3.855,0.5-4.269-1.218c-0.565-2.354-0.267-4.963-0.043-7.437
	c0.104-1.148,1.391-0.727,2.205-0.705c18.39,0.486,35.174,16.229,37.232,34.905C264.002,57.94,264.002,57.94,258.5,57.939z"/>
<path fill-rule="evenodd" clip-rule="evenodd" fill="#0B0B0B" d="M148.555,85.633c-3.991,3.518-7.808,6.137-12.862,6.055
	c-5.206-0.084-7.688-1.975-8.196-7.149c-0.592-6.029,0.325-11.944,2.617-17.564c1.496-3.669,4.529-5.607,8.365-6.049
	c5.362-0.617,10.696,0.031,16.021,0.739c2.023,0.27,1.915,1.482,1.7,2.942c-1.157,7.886-2.359,15.768-3.388,23.672
	c-0.248,1.903-0.646,2.867-2.851,2.713c-2.563-0.18-1.26-1.838-1.393-2.95C148.497,87.454,148.555,86.854,148.555,85.633z
	 M132.479,81.293c-0.117,5.141,1.938,6.754,6.582,5.573c6.319-1.608,9.639-5.73,10.513-13.054c1.137-9.525,1.142-9.48-8.603-8.594
	c-3.526,0.321-5.754,1.901-6.735,5.399C133.215,74.254,132.872,77.971,132.479,81.293z"/>
<path fill-rule="evenodd" clip-rule="evenodd" fill="#0B0B0B" d="M247.964,67.278c2.777-1.798,4.994-3.384,7.354-4.718
	c2.298-1.299,4.808-2.026,7.521-1.829c4.156,0.302,6.616,2.657,6.188,6.804c-0.741,7.185-1.97,14.316-2.85,21.488
	c-0.361,2.949-2.466,1.758-3.942,1.873c-2.424,0.188-1.246-1.543-1.117-2.534c0.787-6.054,1.756-12.087,2.438-18.152
	c0.517-4.608-1.171-5.911-5.67-4.771c-6.085,1.542-10.141,6.115-10.939,12.277c-0.479,3.707-1.161,7.394-1.479,11.113
	c-0.251,2.919-2.28,1.95-3.836,2.099c-2.317,0.22-1.514-1.453-1.371-2.5c1.114-8.147,2.357-16.278,3.41-24.433
	c0.259-2.002,0.928-2.817,3.007-2.585c2.517,0.281,1.075,2.007,1.264,3.112C248.062,65.233,247.964,65.979,247.964,67.278z"/>
<path fill-rule="evenodd" clip-rule="evenodd" fill="#0B0B0B" d="M211.347,65.223c-2.246,0-4.492-0.008-6.737,0.003
	c-1.765,0.009-3.165,0.511-3.666,2.474c-0.561,2.193,0.737,3.307,2.384,4.088c3.26,1.55,6.603,2.926,9.872,4.456
	c4.74,2.221,5.899,4.068,5.347,8.254c-0.531,4.019-2.89,6.354-7.621,6.858c-5.091,0.543-10.216,0.499-15.308-0.304
	c-1.146-0.181-2.213-0.131-1.955-1.896c0.212-1.451,0.519-2.162,2.246-2.102c4.112,0.146,8.235,0.095,12.351-0.015
	c2.133-0.056,4.434-0.265,5.072-2.887c0.711-2.917-1.731-3.497-3.607-4.363c-3.052-1.409-6.203-2.613-9.201-4.126
	c-4.126-2.085-5.314-4.617-4.568-8.796c0.721-4.03,3.606-5.547,7.18-5.923c5.23-0.55,10.469-0.226,15.685,0.456
	c1.137,0.148,1.979,0.299,1.524,1.783c-0.315,1.026-0.15,2.242-1.884,2.145c-2.363-0.133-4.741-0.033-7.112-0.033
	C211.347,65.272,211.347,65.248,211.347,65.223z"/>
<path fill-rule="evenodd" clip-rule="evenodd" fill="#0B0B0B" d="M114.875,91.491c-5.984,0.119-8.245-2.325-7.522-8.236
	c0.591-4.831,1.083-9.69,2.024-14.456c0.548-2.772-0.09-3.68-2.833-3.37c-0.854,0.097-2.191,0.447-1.961-1.295
	c0.14-1.06-0.09-2.715,1.528-2.448c5.137,0.849,4.667-2.841,5.13-5.919c0.198-1.315-0.41-3.089,2.081-3.192
	c2.453-0.101,3.921,0.26,3.092,3.16c-0.171,0.598-0.202,1.236-0.374,1.834c-0.848,2.943-0.137,4.485,3.279,3.903
	c1.093-0.186,2.244-0.038,3.368-0.025c1.086,0.012,2.38-0.289,2.072,1.609c-0.205,1.265-0.194,2.601-2.054,2.407
	c-0.124-0.012-0.251-0.015-0.374,0.002c-2.402,0.33-5.57-1.209-7.044,0.698c-1.346,1.741-1.095,4.749-1.454,7.212
	c-0.45,3.088-0.713,6.204-1.226,9.28c-0.497,2.981,0.782,4.023,3.623,4.252c1.53,0.123,4.413-1.624,4.214,2.142
	c-0.169,3.192-2.781,1.97-4.449,2.431C115.646,91.573,115.249,91.491,114.875,91.491z"/>
<path fill-rule="evenodd" clip-rule="evenodd" fill="#0B0B0B" d="M169.874,91.518c-5.451,0.065-7.855-2.554-7.12-7.896
	c1.495-10.855,3.201-21.685,4.49-32.564c0.39-3.295,2.386-2.576,4.16-2.446c2.499,0.182,1.085,2.008,0.942,3.086
	c-1.357,10.246-2.759,20.487-4.237,30.717c-0.365,2.524,0.112,4.212,3.001,4.384c1.613,0.096,3.565-0.563,3.339,2.417
	c-0.219,2.888-2.333,1.928-3.83,2.294C170.385,91.566,170.123,91.518,169.874,91.518z"/>
<path fill-rule="evenodd" clip-rule="evenodd" fill="#BDFE29" d="M241.15,49.226c0.054,4.892-3.503,8.583-8.36,8.676
	c-4.776,0.091-8.722-3.569-8.887-8.245c-0.165-4.714,3.918-8.954,8.663-8.998C237.214,40.617,241.098,44.492,241.15,49.226z"/>
<path fill-rule="evenodd" clip-rule="evenodd" fill="#0B0B0B" d="M182.324,90.884c-1.95,0.28-2.745,0.01-2.372-2.313
	c1.306-8.132,2.446-16.299,3.336-24.487c0.309-2.834,1.852-2.691,3.803-2.656c2.934,0.053,1.477,2.148,1.341,3.225
	c-0.999,7.924-2.21,15.823-3.256,23.742C184.924,90.298,184.433,91.542,182.324,90.884z"/>
<path fill-rule="evenodd" clip-rule="evenodd" fill="#0B0B0B" d="M42.415,90.83c-2.507,0.64-2.784-0.478-2.478-2.547
	c1.202-8.137,2.38-16.281,3.326-24.45c0.341-2.943,2.203-2.425,3.981-2.373c2.682,0.078,1.208,2.023,1.088,2.998
	c-0.986,8.04-2.133,16.06-3.213,24.089C44.894,90.228,44.473,91.599,42.415,90.83z"/>
<path fill-rule="evenodd" clip-rule="evenodd" fill="#0B0B0B" d="M91.834,90.866c-2.294,0.538-2.456-0.651-2.186-2.469
	c1.227-8.232,2.535-16.459,3.478-24.726c0.366-3.21,2.423-2.142,4.018-2.182c2.287-0.058,1.251,1.678,1.116,2.68
	c-1.082,8.002-2.34,15.982-3.315,23.996C94.68,90.348,94.12,91.433,91.834,90.866z"/>
<path fill-rule="evenodd" clip-rule="evenodd" fill="#0B0B0B" d="M227.978,90.836c-2.593,0.583-2.723-0.563-2.404-2.619
	c1.237-7.98,2.493-15.969,3.317-23.998c0.316-3.084,1.935-2.898,3.976-2.773c2.892,0.176,1.3,2.285,1.17,3.319
	c-0.997,7.888-2.265,15.741-3.287,23.627C230.496,90.354,230.108,91.578,227.978,90.836z"/>
<path fill-rule="evenodd" clip-rule="evenodd" fill="#BDFE29" d="M289.439,124.183c1.568-4.002,2.854-7.234,4.102-10.481
	c0.436-1.133,0.978-2.081,2.406-1.786c1.428,0.295,1.057,1.501,1.065,2.421c0.036,3.616,0.014,7.234,0.004,10.852
	c-0.002,0.755-0.012,1.675-1.002,1.676c-1.075,0-0.896-0.98-0.898-1.696c-0.013-2.99-0.005-5.979-0.685-9.225
	c-1.03,2.628-2.013,5.276-3.113,7.875c-0.462,1.089-0.444,2.864-1.89,2.938c-1.562,0.079-1.503-1.725-1.948-2.804
	c-1.079-2.617-2.068-5.271-3.802-7.847c0,2.989,0.012,5.979-0.009,8.968c-0.005,0.697,0.242,1.717-0.808,1.76
	c-1.026,0.042-0.941-0.954-0.945-1.672c-0.02-3.742-0.028-7.484-0.006-11.226c0.005-0.828-0.185-1.836,1.07-2.035
	c1.172-0.188,1.845,0.322,2.261,1.432C286.507,116.708,287.838,120.062,289.439,124.183z"/>
<path fill-rule="evenodd" clip-rule="evenodd" fill="#BDFE29" d="M271.304,111.918c0,4.758,0.012,9.516-0.034,14.273
	c-0.002,0.24-0.479,0.65-0.763,0.677c-0.52,0.05-0.935-0.253-0.938-0.883c-0.003-0.499-0.011-0.999-0.028-1.498
	c-0.155-4.286-2.327-5.733-6.532-4.517c-1.144,0.331-1.26,1.023-1.283,1.924c-0.031,1.249-0.031,2.498-0.072,3.746
	c-0.018,0.521-0.224,1.039-0.787,1.104c-0.859,0.098-0.992-0.577-0.994-1.218c-0.015-4.122-0.015-8.245,0.002-12.368
	c0.002-0.487,0.083-1.051,0.719-1.127c0.842-0.103,1.007,0.515,1.076,1.16c0.04,0.371,0.02,0.749,0.045,1.122
	c0.234,3.424,3.743,5.312,6.908,3.796c1.086-0.52,0.793-1.404,0.917-2.219C269.734,114.604,269.061,113.171,271.304,111.918z"/>
<path fill-rule="evenodd" clip-rule="evenodd" fill="#BDFE29" d="M212.162,112.007c-6.057,5.166-4.43,9.896,0.93,14.223
	c-1.188,1.223-1.893,0.717-2.466,0.023c-0.953-1.151-1.766-2.423-2.754-3.54c-0.915-1.033-1.324-3.156-3.246-2.428
	c-1.564,0.593-0.904,2.366-1.061,3.675c-0.105,0.887,0.438,1.926-1.238,3.269c0-5.222-0.018-9.84,0.025-14.458
	c0.004-0.482,0.429-0.875,1.04-0.764c0.635,0.115,0.735,0.65,0.745,1.131c0.037,1.681,0.015,3.363,0.015,5.461
	C207.526,116.633,208.676,112.805,212.162,112.007z"/>
<path fill-rule="evenodd" clip-rule="evenodd" fill="#BDFE29" d="M330.446,126.915c-2.809,0.044-2.918-1.988-3.725-3.213
	c-1.021-1.553-1.648-3.522-4.098-2.926c-2.5,0.61-0.861,2.668-1.287,4.01c-0.178,0.561-0.116,1.198-0.185,2.069
	c-1.925-1.116-1.044-2.751-1.126-4.01c-0.161-2.476-0.136-4.973-0.01-7.451c0.062-1.214-0.824-3.191,1.132-3.414
	c2.522-0.287,5.309-0.741,7.447,1.313c1.313,1.26,1.667,3.528,0.62,4.434c-3.464,2.989-0.755,5.147,0.491,7.58
	C329.918,125.721,330.097,126.153,330.446,126.915z M321.333,116.651c-0.395,1.962,0.42,2.79,2.616,2.584
	c2.064-0.193,3.933-0.669,3.788-3.104c-0.145-2.433-2.267-2.511-4.159-2.74C320.872,113.062,321.314,114.91,321.333,116.651z"/>
<path fill-rule="evenodd" clip-rule="evenodd" fill="#BDFE29" d="M241.053,125.152c1.333,0.117,2.665,0.302,4,0.332
	c1.424,0.033,2.847-0.232,3.275-1.855c0.448-1.694-0.783-2.457-2.074-3.063c-0.786-0.37-1.619-0.641-2.399-1.02
	c-1.669-0.812-2.824-1.989-2.816-4.012c0.008-1.714,0.861-2.906,2.386-3.428c1.919-0.654,3.915-0.624,5.813,0.213
	c0.215,0.095,0.417,0.638,0.341,0.884c-0.162,0.519-0.626,0.661-1.188,0.547c-2.037-0.412-4.66-1.433-5.28,1.482
	c-0.6,2.823,2.446,2.936,4.225,3.814c1.956,0.966,3.344,2.256,2.902,4.627c-0.433,2.327-2.205,3.198-4.309,3.467
	c-1.894,0.241-3.78,0.234-5.229-1.053C240.816,125.776,240.935,125.464,241.053,125.152z"/>
<path fill-rule="evenodd" clip-rule="evenodd" fill="#BDFE29" d="M219.823,126.717c1.89-4.765,3.7-9.437,5.615-14.065
	c0.429-1.036,1.499-1.191,1.962-0.099c1.843,4.356,3.536,8.776,5.271,13.179c0.198,0.504,0.145,1.041-0.486,1.141
	c-0.984,0.155-1.262-0.668-1.484-1.356c-0.643-1.983-1.338-3.515-4.032-3.397c-2.282,0.099-3.812,0.51-4.373,2.924
	C222.088,125.934,221.904,127.114,219.823,126.717z M226.391,114.715c-0.271,2.007-2.586,3.504-1.361,5.667
	c0.242,0.428,2.433,0.474,2.726,0.032C229.192,118.251,226.947,116.683,226.391,114.715z"/>
<path fill-rule="evenodd" clip-rule="evenodd" fill="#0B0B0B" d="M187.246,55.506c-1.931,0.25-2.817-0.48-2.511-2.523
	c0.311-2.076,0.072-4.432,3.362-4.173c1.537,0.121,2.906,0.28,2.537,2.231C190.257,53.029,190.945,55.993,187.246,55.506z"/>
<path fill-rule="evenodd" clip-rule="evenodd" fill="#0B0B0B" d="M47.224,55.513c-1.805,0.169-3.003-0.337-2.596-2.46
	c0.376-1.955-0.042-4.456,3.308-4.252c1.794,0.109,2.913,0.438,2.591,2.551C50.215,53.397,50.542,55.89,47.224,55.513z"/>
<path fill-rule="evenodd" clip-rule="evenodd" fill="#0B0B0B" d="M100.164,51.66c0.076,2.336-0.312,4.208-3.431,3.912
	c-1.644-0.156-2.675-0.498-2.295-2.417c0.411-2.079-0.058-4.687,3.552-4.371C100.078,48.965,100.617,49.791,100.164,51.66z"/>
<path fill-rule="evenodd" clip-rule="evenodd" fill="#BDFE29" d="M308.055,126.672c0-4.864,0-9.728,0-14.592
	c0.281-0.007,0.562-0.014,0.843-0.021c0,4.867,0,9.734,0,14.601C308.617,126.663,308.336,126.668,308.055,126.672z"/>
</svg>
